<svg xmlns="http://www.w3.org/2000/svg" viewBox="0 0 1600 1600">
<style>
    path {
        fill: rgba(0, 255, 255, 0.7);
        stroke: #ff00ff;
        stroke-width: 5px;
        filter: drop-shadow(0px 10px 10px rgba(0, 255, 255, 0.5));
    }
    .extruded_1 {
        fill: #050b14;
        stroke: #00ffff;
        stroke-width: 2px;
        transform: translate(5px, 5px);
    }
    .extruded_2 {
        fill: #050b14;
        stroke: #ff00ff;
        stroke-width: 2px;
        transform: translate(10px, 10px);
    }
    .extruded_3 {
        fill: #050b14;
        stroke: #00ffff;
        stroke-width: 2px;
        transform: translate(15px, 15px);
    }
    .extruded_4 {
        fill: #050b14;
        stroke: #ff00ff;
        stroke-width: 2px;
        transform: translate(20px, 20px);
    }
</style>
<path class="extruded_4" d="m 998,883 q 0,13 -10,23 l -50,50 q -10,10 -23,10 -13,0 -23,-10 L 499,563 106,956 Q 96,966 83,966 70,966 60,956 L 10,906 Q 0,896 0,883 0,870 10,860 L 476,394 q 10,-10 23,-10 13,0 23,10 l 466,466 q 10,10 10,23 z m 0,-384 q 0,13 -10,23 l -50,50 q -10,10 -23,10 -13,0 -23,-10 L 499,179 106,572 Q 96,582 83,582 70,582 60,572 L 10,522 Q 0,512 0,499 0,486 10,476 L 476,10 q 10,-10 23,-10 13,0 23,10 l 466,466 q 10,10 10,23 z" />
<path class="extruded_3" d="m 998,883 q 0,13 -10,23 l -50,50 q -10,10 -23,10 -13,0 -23,-10 L 499,563 106,956 Q 96,966 83,966 70,966 60,956 L 10,906 Q 0,896 0,883 0,870 10,860 L 476,394 q 10,-10 23,-10 13,0 23,10 l 466,466 q 10,10 10,23 z m 0,-384 q 0,13 -10,23 l -50,50 q -10,10 -23,10 -13,0 -23,-10 L 499,179 106,572 Q 96,582 83,582 70,582 60,572 L 10,522 Q 0,512 0,499 0,486 10,476 L 476,10 q 10,-10 23,-10 13,0 23,10 l 466,466 q 10,10 10,23 z" />
<path class="extruded_2" d="m 998,883 q 0,13 -10,23 l -50,50 q -10,10 -23,10 -13,0 -23,-10 L 499,563 106,956 Q 96,966 83,966 70,966 60,956 L 10,906 Q 0,896 0,883 0,870 10,860 L 476,394 q 10,-10 23,-10 13,0 23,10 l 466,466 q 10,10 10,23 z m 0,-384 q 0,13 -10,23 l -50,50 q -10,10 -23,10 -13,0 -23,-10 L 499,179 106,572 Q 96,582 83,582 70,582 60,572 L 10,522 Q 0,512 0,499 0,486 10,476 L 476,10 q 10,-10 23,-10 13,0 23,10 l 466,466 q 10,10 10,23 z" />
<path class="extruded_1" d="m 998,883 q 0,13 -10,23 l -50,50 q -10,10 -23,10 -13,0 -23,-10 L 499,563 106,956 Q 96,966 83,966 70,966 60,956 L 10,906 Q 0,896 0,883 0,870 10,860 L 476,394 q 10,-10 23,-10 13,0 23,10 l 466,466 q 10,10 10,23 z m 0,-384 q 0,13 -10,23 l -50,50 q -10,10 -23,10 -13,0 -23,-10 L 499,179 106,572 Q 96,582 83,582 70,582 60,572 L 10,522 Q 0,512 0,499 0,486 10,476 L 476,10 q 10,-10 23,-10 13,0 23,10 l 466,466 q 10,10 10,23 z" />
<path d="m 998,883 q 0,13 -10,23 l -50,50 q -10,10 -23,10 -13,0 -23,-10 L 499,563 106,956 Q 96,966 83,966 70,966 60,956 L 10,906 Q 0,896 0,883 0,870 10,860 L 476,394 q 10,-10 23,-10 13,0 23,10 l 466,466 q 10,10 10,23 z m 0,-384 q 0,13 -10,23 l -50,50 q -10,10 -23,10 -13,0 -23,-10 L 499,179 106,572 Q 96,582 83,582 70,582 60,572 L 10,522 Q 0,512 0,499 0,486 10,476 L 476,10 q 10,-10 23,-10 13,0 23,10 l 466,466 q 10,10 10,23 z" />

</svg>