<svg xmlns="http://www.w3.org/2000/svg" width="800" height="800" viewBox="0 0 800 800">
  <rect width="800" height="800" fill="#020205"/>
  <path id="main" d="M 385.00,280.00 L 385.87,282.50 L 390.00,282.50 L 387.50,280.10 L 392.50,282.50 L 390.00,280.34 L 395.00,282.50 L 392.50,280.53 L 397.50,282.50 L 395.00,280.66 L 400.00,282.50 L 397.50,280.74 L 400.00,282.50 L 400.00,280.76 L 402.50,282.50 L 402.50,280.74 L 405.00,282.50 L 405.00,280.66 L 407.50,282.50 L 407.50,280.53 L 410.00,282.50 L 410.00,280.34 L 412.50,280.10 L 370.09,285.00 L 375.00,285.00 L 372.50,282.52 L 377.50,285.00 L 375.00,283.09 L 380.00,285.00 L 377.50,283.60 L 382.50,285.00 L 380.00,284.06 L 385.00,285.00 L 382.50,284.46 L 387.50,282.50 L 387.50,285.00 L 385.00,284.81 L 413.37,282.50 L 412.50,285.00 L 412.50,285.00 L 415.00,285.00 L 415.00,284.81 L 417.50,285.00 L 417.50,284.46 L 420.00,285.00 L 420.00,284.06 L 422.50,285.00 L 422.50,283.60 L 425.00,285.00 L 425.00,283.09 L 427.50,282.52 L 363.95,287.50 L 367.50,287.50 L 365.00,285.47 L 370.00,287.50 L 367.50,286.21 L 372.50,285.00 L 372.50,287.50 L 370.00,286.90 L 427.59,285.00 L 427.50,287.50 L 427.50,287.50 L 430.00,287.50 L 430.00,286.90 L 432.50,287.50 L 432.50,286.21 L 435.00,285.47 L 355.92,290.00 L 360.00,290.00 L 357.50,287.86 L 362.50,290.00 L 360.00,288.79 L 365.00,287.50 L 365.00,290.00 L 362.50,289.66 L 436.45,287.50 L 435.00,290.00 L 435.00,290.00 L 437.50,290.00 L 437.50,289.66 L 440.00,290.00 L 440.00,288.79 L 442.50,287.86 L 351.79,292.50 L 355.00,292.50 L 352.50,290.81 L 357.50,290.00 L 357.50,292.50 L 355.00,291.87 L 443.42,290.00 L 442.50,292.50 L 442.50,292.50 L 445.00,292.50 L 445.00,291.87 L 447.50,290.81 L 346.91,295.00 L 350.00,295.00 L 347.50,293.47 L 352.50,292.50 L 352.50,295.00 L 350.00,294.67 L 449.29,292.50 L 447.50,295.00 L 447.50,295.00 L 450.00,295.00 L 450.00,294.67 L 452.50,293.47 L 341.48,297.50 L 345.00,297.50 L 342.50,295.84 L 347.50,295.00 L 347.50,297.50 L 345.00,297.20 L 454.41,295.00 L 452.50,297.50 L 452.50,297.50 L 455.00,297.50 L 455.00,297.20 L 457.50,295.84 L 335.63,300.00 L 340.00,300.00 L 337.50,297.90 L 342.50,297.50 L 342.50,300.00 L 340.00,299.41 L 458.98,297.50 L 457.50,300.00 L 457.50,300.00 L 460.00,300.00 L 460.00,299.41 L 462.50,297.90 L 334.43,302.50 L 337.50,300.00 L 337.50,302.50 L 335.00,301.30 L 463.13,300.00 L 462.50,302.50 L 462.50,302.50 L 465.00,301.30 L 327.93,305.00 L 332.50,305.00 L 330.00,302.82 L 335.00,302.50 L 335.00,305.00 L 332.50,304.61 L 466.93,302.50 L 465.00,305.00 L 465.00,305.00 L 467.50,305.00 L 467.50,304.61 L 470.00,302.82 L 326.18,307.50 L 330.00,305.00 L 330.00,307.50 L 327.50,305.93 L 470.43,305.00 L 470.00,307.50 L 470.00,307.50 L 472.50,305.93 L 324.22,310.00 L 327.50,307.50 L 327.50,310.00 L 325.00,308.94 L 473.68,307.50 L 472.50,310.00 L 472.50,310.00 L 475.00,308.94 L 322.06,312.50 L 325.00,310.00 L 325.00,312.50 L 322.50,311.83 L 476.72,310.00 L 475.00,312.50 L 475.00,312.50 L 477.50,311.83 L 319.73,315.00 L 322.50,312.50 L 322.50,315.00 L 320.00,314.60 L 479.56,312.50 L 477.50,315.00 L 477.50,315.00 L 480.00,314.60 L 317.23,317.50 L 320.00,315.00 L 320.00,317.50 L 317.50,317.23 L 482.23,315.00 L 480.00,317.50 L 480.00,317.50 L 482.50,317.23 L 314.60,320.00 L 317.50,317.50 L 317.50,320.00 L 315.00,319.73 L 484.73,317.50 L 482.50,320.00 L 482.50,320.00 L 485.00,319.73 L 311.83,322.50 L 315.00,320.00 L 315.00,322.50 L 312.50,322.06 L 487.10,320.00 L 485.00,322.50 L 485.00,322.50 L 487.50,322.06 L 308.94,325.00 L 312.50,322.50 L 312.50,325.00 L 310.00,324.22 L 489.33,322.50 L 487.50,325.00 L 487.50,325.00 L 490.00,324.22 L 305.93,327.50 L 310.00,325.00 L 310.00,327.50 L 307.50,326.18 L 491.44,325.00 L 490.00,327.50 L 490.00,327.50 L 492.50,326.18 L 302.82,330.00 L 307.50,327.50 L 307.50,330.00 L 305.00,327.93 L 493.43,327.50 L 492.50,330.00 L 492.50,330.00 L 495.00,327.93 L 305.00,330.00 L 304.61,332.50 L 495.32,330.00 L 495.00,332.50 L 301.30,335.00 L 305.00,332.50 L 305.00,335.00 L 302.50,334.43 L 497.11,332.50 L 495.00,335.00 L 495.00,335.00 L 497.50,334.43 L 297.90,337.50 L 302.50,335.00 L 302.50,337.50 L 300.00,335.63 L 498.80,335.00 L 497.50,337.50 L 497.50,337.50 L 500.00,335.63 L 300.00,337.50 L 299.41,340.00 L 500.40,337.50 L 500.00,340.00 L 295.84,342.50 L 300.00,340.00 L 300.00,342.50 L 297.50,341.48 L 501.91,340.00 L 500.00,342.50 L 500.00,342.50 L 502.50,341.48 L 297.50,342.50 L 297.20,345.00 L 503.34,342.50 L 502.50,345.00 L 293.47,347.50 L 297.50,345.00 L 297.50,347.50 L 295.00,346.91 L 504.70,345.00 L 502.50,347.50 L 502.50,347.50 L 505.00,346.91 L 295.00,347.50 L 294.67,350.00 L 505.97,347.50 L 505.00,350.00 L 290.81,352.50 L 295.00,350.00 L 295.00,352.50 L 292.50,351.79 L 507.17,350.00 L 505.00,352.50 L 505.00,352.50 L 507.50,351.79 L 292.50,352.50 L 291.87,355.00 L 508.31,352.50 L 507.50,355.00 L 287.86,357.50 L 292.50,355.00 L 292.50,357.50 L 290.00,355.92 L 509.37,355.00 L 507.50,357.50 L 507.50,357.50 L 510.00,355.92 L 290.00,357.50 L 288.79,360.00 L 510.36,357.50 L 510.00,360.00 L 290.00,360.00 L 289.66,362.50 L 511.29,360.00 L 510.00,362.50 L 285.47,365.00 L 290.00,362.50 L 290.00,365.00 L 287.50,363.95 L 512.16,362.50 L 510.00,365.00 L 510.00,365.00 L 512.50,363.95 L 287.50,365.00 L 286.21,367.50 L 512.97,365.00 L 512.50,367.50 L 287.50,367.50 L 286.90,370.00 L 513.71,367.50 L 512.50,370.00 L 282.52,372.50 L 287.50,370.00 L 287.50,372.50 L 285.00,370.09 L 514.40,370.00 L 512.50,372.50 L 512.50,372.50 L 515.00,370.09 L 285.00,372.50 L 283.09,375.00 L 515.02,372.50 L 515.00,375.00 L 285.00,375.00 L 283.60,377.50 L 515.59,375.00 L 515.00,377.50 L 285.00,377.50 L 284.06,380.00 L 516.10,377.50 L 515.00,380.00 L 285.00,380.00 L 284.46,382.50 L 516.56,380.00 L 515.00,382.50 L 285.00,382.50 L 284.81,385.00 L 516.96,382.50 L 515.00,385.00 L 280.10,387.50 L 285.00,385.00 L 285.00,387.50 L 282.50,385.87 L 517.31,385.00 L 515.00,387.50 L 515.00,387.50 L 517.50,385.87 L 282.50,387.50 L 280.34,390.00 L 517.60,387.50 L 517.50,390.00 L 282.50,390.00 L 280.53,392.50 L 517.84,390.00 L 517.50,392.50 L 282.50,392.50 L 280.66,395.00 L 518.03,392.50 L 517.50,395.00 L 282.50,395.00 L 280.74,397.50 L 518.16,395.00 L 517.50,397.50 L 282.50,397.50 L 280.76,400.00 L 518.24,397.50 L 517.50,400.00 L 282.50,402.50 L 280.74,402.50 L 518.26,400.00 L 517.50,400.00 L 282.50,405.00 L 280.66,405.00 L 518.24,402.50 L 517.50,402.50 L 282.50,407.50 L 280.53,407.50 L 518.16,405.00 L 517.50,405.00 L 282.50,410.00 L 280.34,410.00 L 518.03,407.50 L 517.50,407.50 L 282.50,412.50 L 280.10,412.50 L 517.84,410.00 L 517.50,410.00 L 282.50,413.37 L 282.50,412.50 L 285.00,415.00 L 284.81,415.00 L 517.50,412.50 L 517.50,413.37 L 515.00,412.50 L 517.60,412.50 L 285.00,417.50 L 284.46,417.50 L 517.31,415.00 L 515.00,415.00 L 285.00,420.00 L 284.06,420.00 L 516.96,417.50 L 515.00,417.50 L 285.00,422.50 L 283.60,422.50 L 516.56,420.00 L 515.00,420.00 L 285.00,425.00 L 283.09,425.00 L 516.10,422.50 L 515.00,422.50 L 285.00,427.50 L 282.52,427.50 L 515.59,425.00 L 515.00,425.00 L 285.00,427.59 L 285.00,427.50 L 287.50,430.00 L 286.90,430.00 L 515.00,427.50 L 515.00,427.59 L 512.50,427.50 L 515.02,427.50 L 287.50,432.50 L 286.21,432.50 L 514.40,430.00 L 512.50,430.00 L 287.50,435.00 L 285.47,435.00 L 514.17,432.50 L 512.50,435.00 L 287.50,436.45 L 287.50,435.00 L 290.00,437.50 L 289.66,437.50 L 514.57,435.00 L 512.50,437.50 L 290.00,440.00 L 288.79,440.00 L 514.92,437.50 L 512.50,440.00 L 512.50,440.00 L 515.00,437.68 L 290.00,442.50 L 287.86,442.50 L 515.00,440.00 L 515.00,440.09 L 512.50,440.00 L 515.01,440.00 L 290.00,443.42 L 290.00,442.50 L 292.50,445.00 L 291.87,445.00 L 514.83,442.50 L 512.50,442.50 L 292.50,447.50 L 290.81,447.50 L 514.59,445.00 L 512.50,447.50 L 292.50,449.81 L 292.50,447.50 L 295.00,450.00 L 294.92,450.00 L 514.93,447.50 L 512.50,450.00 L 512.50,450.00 L 515.00,447.63 L 290.93,452.50 L 295.00,450.00 L 295.00,452.50 L 292.50,452.31 L 515.00,450.00 L 515.00,450.05 L 512.50,450.00 L 515.00,450.00 L 292.50,452.50 L 291.61,455.00 L 514.82,452.50 L 512.50,452.50 L 292.50,455.00 L 291.98,457.50 L 514.36,455.00 L 512.50,455.00 L 292.50,457.50 L 292.05,460.00 L 513.62,457.50 L 512.50,457.50 L 292.50,462.50 L 291.82,462.50 L 512.50,460.00 L 512.50,460.15 L 510.00,460.00 L 512.58,460.00 L 292.50,465.00 L 291.29,465.00 L 510.00,462.50 L 510.00,464.12 L 507.50,462.50 L 511.16,462.50 L 292.50,467.50 L 290.45,467.50 L 509.30,465.00 L 507.50,465.00 L 292.50,468.46 L 292.50,467.50 L 295.00,470.00 L 294.22,470.00 L 507.50,467.50 L 507.50,468.46 L 505.00,467.50 L 507.95,467.50 L 295.00,472.50 L 292.56,472.50 L 506.72,470.00 L 505.00,470.00 L 295.00,472.57 L 295.00,472.50 L 297.50,475.00 L 295.27,475.00 L 505.00,472.50 L 505.00,472.60 L 502.50,472.50 L 505.06,472.50 L 297.50,475.25 L 297.50,475.00 L 300.00,477.20 L 300.00,475.00 L 302.50,477.50 L 302.13,477.50 L 504.00,475.00 L 502.50,475.00 L 302.50,480.00 L 300.28,480.00 L 502.50,477.50 L 502.50,479.39 L 500.00,477.50 L 503.27,477.50 L 302.50,480.47 L 302.50,480.00 L 305.00,482.50 L 303.66,482.50 L 502.24,480.00 L 500.00,480.00 L 305.00,483.92 L 305.00,482.50 L 307.50,485.00 L 306.49,485.00 L 500.00,482.50 L 500.00,483.75 L 497.50,482.50 L 500.85,482.50 L 307.50,486.36 L 307.50,485.00 L 310.00,487.50 L 308.48,487.50 L 497.50,485.00 L 497.50,486.73 L 495.00,485.00 L 499.05,485.00 L 310.00,488.16 L 310.00,487.50 L 312.50,489.50 L 312.50,487.50 L 315.00,490.00 L 313.74,490.00 L 495.00,487.50 L 495.00,488.95 L 492.50,487.50 L 496.71,487.50 L 315.00,490.46 L 315.00,490.00 L 317.50,491.09 L 317.50,490.00 L 320.00,492.12 L 320.00,490.00 L 322.50,492.50 L 321.53,492.50 L 490.00,490.00 L 490.00,491.97 L 487.50,490.00 L 492.50,490.00 L 492.50,490.66 L 493.53,490.00 L 322.50,493.07 L 322.50,492.50 L 325.00,493.72 L 325.00,492.50 L 327.50,494.11 L 327.50,492.50 L 330.00,495.00 L 328.07,495.00 L 472.50,492.50 L 472.50,494.11 L 470.00,492.50 L 475.00,492.50 L 475.00,493.73 L 475.00,492.50 L 477.50,494.09 L 477.50,492.50 L 480.00,494.19 L 482.50,492.50 L 482.50,494.03 L 485.00,492.50 L 485.00,493.62 L 487.50,492.50 L 487.50,492.95 L 488.68,492.50 L 330.00,495.32 L 330.00,495.00 L 332.50,497.11 L 332.50,495.00 L 335.00,497.50 L 334.43,497.50 L 467.50,495.00 L 467.50,497.11 L 465.00,495.00 L 470.00,495.00 L 470.00,495.32 L 470.57,495.00 L 335.00,498.80 L 335.00,497.50 L 337.50,500.00 L 335.63,500.00 L 465.00,497.50 L 465.00,498.80 L 462.50,497.50 L 466.93,497.50 L 337.50,500.40 L 337.50,500.00 L 340.00,501.91 L 340.00,500.00 L 342.50,502.50 L 341.48,502.50 L 460.00,500.00 L 460.00,501.91 L 457.50,500.00 L 462.50,500.00 L 462.50,500.40 L 463.13,500.00 L 342.50,503.34 L 342.50,502.50 L 345.00,504.70 L 345.00,502.50 L 347.50,505.00 L 346.91,505.00 L 455.00,502.50 L 455.00,504.70 L 452.50,502.50 L 457.50,502.50 L 457.50,503.34 L 458.98,502.50 L 347.50,505.97 L 347.50,505.00 L 350.00,507.17 L 350.00,505.00 L 352.50,507.50 L 351.79,507.50 L 450.00,505.00 L 450.00,507.17 L 447.50,505.00 L 452.50,505.00 L 452.50,505.97 L 454.41,505.00 L 352.50,508.31 L 352.50,507.50 L 355.00,509.37 L 355.00,507.50 L 357.50,510.00 L 355.92,510.00 L 445.00,507.50 L 445.00,509.37 L 442.50,507.50 L 447.50,507.50 L 447.50,508.31 L 449.29,507.50 L 357.50,510.36 L 357.50,510.00 L 360.00,511.29 L 360.00,510.00 L 362.50,512.16 L 362.50,510.00 L 365.00,512.50 L 363.95,512.50 L 437.50,510.00 L 437.50,512.16 L 435.00,510.00 L 440.00,510.00 L 440.00,511.29 L 442.50,510.00 L 442.50,510.36 L 443.42,510.00 L 365.00,512.97 L 365.00,512.50 L 367.50,513.71 L 367.50,512.50 L 370.00,514.40 L 370.00,512.50 L 372.50,515.00 L 370.09,515.00 L 430.00,512.50 L 430.00,514.40 L 427.50,512.50 L 432.50,512.50 L 432.50,513.71 L 435.00,512.50 L 435.00,512.97 L 436.45,512.50 L 372.50,515.02 L 372.50,515.00 L 375.00,515.59 L 375.00,515.00 L 377.50,516.10 L 377.50,515.00 L 380.00,516.56 L 380.00,515.00 L 382.50,516.96 L 382.50,515.00 L 385.00,517.31 L 385.00,515.00 L 387.50,517.50 L 385.87,517.50 L 415.00,515.00 L 415.00,517.31 L 412.50,515.00 L 417.50,515.00 L 417.50,516.96 L 420.00,515.00 L 420.00,516.56 L 422.50,515.00 L 422.50,516.10 L 425.00,515.00 L 425.00,515.59 L 427.50,515.00 L 427.50,515.02 L 427.59,515.00 L 387.50,517.60 L 387.50,517.50 L 390.00,517.84 L 390.00,517.50 L 392.50,518.03 L 392.50,517.50 L 395.00,518.16 L 395.00,517.50 L 397.50,518.24 L 397.50,517.50 L 400.00,518.26 L 402.50,517.50 L 402.50,518.24 L 405.00,517.50 L 405.00,518.16 L 407.50,517.50 L 407.50,518.03 L 410.00,517.50 L 410.00,517.84 L 412.50,517.50 L 412.50,517.60 L 413.37,517.50 Z" fill="none" stroke="#ff00cc" stroke-width="6" opacity="0.6" filter="drop-shadow(0px 0px 6px #ff00cc)"/>
  <script>
    let m=0,e=0,bpm=128.000000,s=Date.now();
    function a(){
      let t=(Date.now()-s)/1000;
      // Slow the rotation speed down by 8x for a majestic cinematic crawl
      m=(t*(bpm/(60*8)))%1; e=(t*(bpm*1.618/(60*8)))%1;
      let hue = (m*360 + 180) % 360;
      document.getElementById('main').setAttribute('stroke',`hsl(${hue},100%,70%)`);
      document.getElementById('echo').setAttribute('transform',`rotate(${e*360} 400 400)`);
      requestAnimationFrame(a);
    }
    a();
  </script>
</svg>
