<svg xmlns="http://www.w3.org/2000/svg" width="800" height="800" viewBox="0 0 800 800">
  <rect width="800" height="800" fill="#020205"/>
  <path id="omni" d="M 384.38,206.09 L 382.46,206.25 L 384.38,206.09 L 387.50,205.86 L 387.50,205.86 L 390.62,205.69 L 390.62,205.69 L 393.75,205.57 L 393.75,205.57 L 396.88,205.50 L 396.88,205.50 L 400.00,205.47 L 400.00,205.47 L 403.12,205.50 L 403.12,205.50 L 406.25,205.57 L 406.25,205.57 L 409.38,205.69 L 409.38,205.69 L 412.50,205.86 L 412.50,205.86 L 415.62,206.09 L 415.62,206.09 L 417.54,206.25 L 362.50,208.98 L 360.47,209.38 L 362.50,208.98 L 365.62,208.43 L 365.62,208.43 L 368.75,207.92 L 368.75,207.92 L 371.88,207.45 L 371.88,207.45 L 375.00,207.04 L 375.00,207.04 L 378.12,206.67 L 378.12,206.67 L 381.25,206.35 L 381.25,206.35 L 382.46,206.25 L 417.54,206.25 L 418.75,206.35 L 418.75,206.35 L 421.88,206.67 L 421.88,206.67 L 425.00,207.04 L 425.00,207.04 L 428.12,207.45 L 428.12,207.45 L 431.25,207.92 L 431.25,207.92 L 434.38,208.43 L 434.38,208.43 L 437.50,208.98 L 437.50,208.98 L 439.53,209.38 L 346.88,212.46 L 346.71,212.50 L 346.88,212.46 L 350.00,211.67 L 350.00,211.67 L 353.12,210.93 L 353.12,210.93 L 356.25,210.24 L 356.25,210.24 L 359.38,209.59 L 359.38,209.59 L 360.47,209.38 L 439.53,209.38 L 440.62,209.59 L 440.62,209.59 L 443.75,210.24 L 443.75,210.24 L 446.88,210.93 L 446.88,210.93 L 450.00,211.67 L 450.00,211.67 L 453.12,212.46 L 453.12,212.46 L 453.29,212.50 L 337.50,215.07 L 335.67,215.62 L 337.50,215.07 L 340.62,214.16 L 340.62,214.16 L 343.75,213.29 L 343.75,213.29 L 346.71,212.50 L 453.29,212.50 L 456.25,213.29 L 456.25,213.29 L 459.38,214.16 L 459.38,214.16 L 462.50,215.07 L 462.50,215.07 L 464.33,215.62 L 328.12,218.04 L 326.05,218.75 L 328.12,218.04 L 331.25,217.01 L 331.25,217.01 L 334.38,216.02 L 334.38,216.02 L 335.67,215.62 L 464.33,215.62 L 465.62,216.02 L 465.62,216.02 L 468.75,217.01 L 468.75,217.01 L 471.88,218.04 L 471.88,218.04 L 473.95,218.75 L 318.75,221.35 L 317.34,221.88 L 318.75,221.35 L 321.88,220.21 L 321.88,220.21 L 325.00,219.11 L 325.00,219.11 L 326.05,218.75 L 473.95,218.75 L 475.00,219.11 L 475.00,219.11 L 478.12,220.21 L 478.12,220.21 L 481.25,221.35 L 481.25,221.35 L 482.66,221.88 L 309.38,224.94 L 309.21,225.00 L 309.38,224.94 L 312.50,223.71 L 312.50,223.71 L 315.62,222.52 L 315.62,222.52 L 317.34,221.88 L 482.66,221.88 L 484.38,222.52 L 484.38,222.52 L 487.50,223.71 L 487.50,223.71 L 490.62,224.94 L 490.62,224.94 L 490.79,225.00 L 303.12,227.46 L 301.50,228.12 L 303.12,227.46 L 306.25,226.19 L 306.25,226.19 L 309.21,225.00 L 490.79,225.00 L 493.75,226.19 L 493.75,226.19 L 496.88,227.46 L 496.88,227.46 L 498.50,228.12 L 296.88,230.05 L 294.04,231.25 L 296.88,230.05 L 300.00,228.75 L 300.00,228.75 L 301.50,228.12 L 498.50,228.12 L 500.00,228.75 L 500.00,228.75 L 503.12,230.05 L 503.12,230.05 L 505.96,231.25 L 287.50,234.04 L 286.73,234.38 L 287.50,234.04 L 290.62,232.71 L 290.62,232.71 L 293.75,231.37 L 293.75,231.37 L 294.04,231.25 L 505.96,231.25 L 506.25,231.37 L 506.25,231.37 L 509.38,232.71 L 509.38,232.71 L 512.50,234.04 L 512.50,234.04 L 513.27,234.38 L 281.25,236.73 L 279.44,237.50 L 281.25,236.73 L 284.38,235.39 L 284.38,235.39 L 286.73,234.38 L 513.27,234.38 L 515.62,235.39 L 515.62,235.39 L 518.75,236.73 L 518.75,236.73 L 520.56,237.50 L 275.00,239.39 L 272.07,240.62 L 275.00,239.39 L 278.12,238.06 L 278.12,238.06 L 279.44,237.50 L 520.56,237.50 L 521.88,238.06 L 521.88,238.06 L 525.00,239.39 L 525.00,239.39 L 527.93,240.62 L 265.62,243.29 L 264.47,243.75 L 265.62,243.29 L 268.75,242.01 L 268.75,242.01 L 271.88,240.71 L 271.88,240.71 L 272.07,240.62 L 527.93,240.62 L 528.12,240.71 L 528.12,240.71 L 531.25,242.01 L 531.25,242.01 L 534.38,243.29 L 534.38,243.29 L 535.53,243.75 L 259.38,245.77 L 256.48,246.88 L 259.38,245.77 L 262.50,244.54 L 262.50,244.54 L 264.47,243.75 L 535.53,243.75 L 537.50,244.54 L 537.50,244.54 L 540.62,245.77 L 540.62,245.77 L 543.52,246.88 L 250.00,249.24 L 247.80,250.00 L 250.00,249.24 L 253.12,248.12 L 253.12,248.12 L 256.25,246.96 L 256.25,246.96 L 256.48,246.88 L 543.52,246.88 L 543.75,246.96 L 543.75,246.96 L 546.88,248.12 L 546.88,248.12 L 550.00,249.24 L 550.00,249.24 L 552.20,250.00 L 240.62,252.33 L 238.24,253.12 L 240.62,252.33 L 243.75,251.35 L 243.75,251.35 L 246.88,250.32 L 246.88,250.32 L 247.80,250.00 L 552.20,250.00 L 553.12,250.32 L 553.12,250.32 L 556.25,251.35 L 556.25,251.35 L 559.38,252.33 L 559.38,252.33 L 561.76,253.12 L 237.50,254.04 L 236.88,256.25 L 237.50,254.04 L 238.24,253.12 L 561.76,253.12 L 562.50,254.04 L 562.50,254.04 L 563.12,256.25 L 236.88,256.25 L 235.98,259.38 L 563.12,256.25 L 564.02,259.38 L 235.98,259.38 L 235.04,262.50 L 564.02,259.38 L 564.96,262.50 L 234.38,264.66 L 234.08,265.62 L 234.38,264.66 L 235.04,262.50 L 564.96,262.50 L 565.62,264.66 L 565.62,264.66 L 565.92,265.62 L 234.08,265.62 L 233.09,268.75 L 565.92,265.62 L 566.91,268.75 L 233.09,268.75 L 232.09,271.88 L 566.91,268.75 L 567.91,271.88 L 231.25,274.42 L 231.06,275.00 L 231.25,274.42 L 232.09,271.88 L 567.91,271.88 L 568.75,274.42 L 568.75,274.42 L 568.94,275.00 L 231.06,275.00 L 230.02,278.12 L 568.94,275.00 L 569.98,278.12 L 230.02,278.12 L 228.98,281.25 L 569.98,278.12 L 571.02,281.25 L 228.12,283.77 L 227.92,284.38 L 228.12,283.77 L 228.98,281.25 L 571.02,281.25 L 571.88,283.77 L 571.88,283.77 L 572.08,284.38 L 227.92,284.38 L 226.86,287.50 L 572.08,284.38 L 573.14,287.50 L 226.86,287.50 L 225.80,290.62 L 573.14,287.50 L 574.20,290.62 L 225.00,292.99 L 224.74,293.75 L 225.00,292.99 L 225.80,290.62 L 574.20,290.62 L 575.00,292.99 L 575.00,292.99 L 575.26,293.75 L 224.74,293.75 L 223.69,296.88 L 575.26,293.75 L 576.31,296.88 L 223.69,296.88 L 222.64,300.00 L 576.31,296.88 L 577.36,300.00 L 221.88,302.32 L 221.61,303.12 L 221.88,302.32 L 222.64,300.00 L 577.36,300.00 L 578.12,302.32 L 578.12,302.32 L 578.39,303.12 L 221.61,303.12 L 220.59,306.25 L 578.39,303.12 L 579.41,306.25 L 220.59,306.25 L 219.58,309.38 L 579.41,306.25 L 580.42,309.38 L 218.75,311.99 L 218.59,312.50 L 218.75,311.99 L 219.58,309.38 L 580.42,309.38 L 581.25,311.99 L 581.25,311.99 L 581.41,312.50 L 218.59,312.50 L 217.62,315.62 L 581.41,312.50 L 582.38,315.62 L 217.62,315.62 L 216.67,318.75 L 582.38,315.62 L 583.33,318.75 L 216.67,318.75 L 215.74,321.88 L 583.33,318.75 L 584.26,321.88 L 215.62,322.28 L 214.84,325.00 L 215.62,322.28 L 215.74,321.88 L 584.26,321.88 L 584.38,322.28 L 584.38,322.28 L 585.16,325.00 L 214.84,325.00 L 213.97,328.12 L 585.16,325.00 L 586.03,328.12 L 213.97,328.12 L 213.12,331.25 L 586.03,328.12 L 586.88,331.25 L 212.50,333.64 L 212.31,334.38 L 212.50,333.64 L 213.12,331.25 L 586.88,331.25 L 587.50,333.64 L 587.50,333.64 L 587.69,334.38 L 212.31,334.38 L 211.52,337.50 L 587.69,334.38 L 588.48,337.50 L 211.52,337.50 L 210.77,340.62 L 588.48,337.50 L 589.23,340.62 L 210.77,340.62 L 210.05,343.75 L 589.23,340.62 L 589.95,343.75 L 209.38,346.84 L 209.37,346.88 L 209.38,346.84 L 210.05,343.75 L 589.95,343.75 L 590.62,346.84 L 590.62,346.84 L 590.63,346.88 L 209.37,346.88 L 208.72,350.00 L 590.63,346.88 L 591.28,350.00 L 208.72,350.00 L 208.10,353.12 L 591.28,350.00 L 591.90,353.12 L 208.10,353.12 L 207.52,356.25 L 591.90,353.12 L 592.48,356.25 L 207.52,356.25 L 206.98,359.38 L 592.48,356.25 L 593.02,359.38 L 206.98,359.38 L 206.48,362.50 L 593.02,359.38 L 593.52,362.50 L 206.25,364.04 L 206.02,365.62 L 206.25,364.04 L 206.48,362.50 L 593.52,362.50 L 593.75,364.04 L 593.75,364.04 L 593.98,365.62 L 206.02,365.62 L 205.59,368.75 L 593.98,365.62 L 594.41,368.75 L 205.59,368.75 L 205.20,371.88 L 594.41,368.75 L 594.80,371.88 L 205.20,371.88 L 204.86,375.00 L 594.80,371.88 L 595.14,375.00 L 204.86,375.00 L 204.55,378.12 L 595.14,375.00 L 595.45,378.12 L 204.55,378.12 L 204.28,381.25 L 595.45,378.12 L 595.72,381.25 L 204.28,381.25 L 204.06,384.38 L 595.72,381.25 L 595.94,384.38 L 204.06,384.38 L 203.87,387.50 L 595.94,384.38 L 596.13,387.50 L 203.87,387.50 L 203.73,390.62 L 596.13,387.50 L 596.27,390.62 L 203.73,390.62 L 203.63,393.75 L 596.27,390.62 L 596.37,393.75 L 203.63,393.75 L 203.56,396.88 L 596.37,393.75 L 596.44,396.88 L 203.56,396.88 L 203.54,400.00 L 596.44,396.88 L 596.46,400.00 L 203.54,400.00 L 203.56,403.12 L 596.46,400.00 L 596.44,403.12 L 203.56,403.12 L 203.63,406.25 L 596.44,403.12 L 596.37,406.25 L 203.63,406.25 L 203.73,409.38 L 596.37,406.25 L 596.27,409.38 L 203.73,409.38 L 203.87,412.50 L 596.27,409.38 L 596.13,412.50 L 203.87,412.50 L 204.06,415.62 L 596.13,412.50 L 595.94,415.62 L 204.06,415.62 L 204.28,418.75 L 595.94,415.62 L 595.72,418.75 L 204.28,418.75 L 204.55,421.88 L 595.72,418.75 L 595.45,421.88 L 204.55,421.88 L 204.86,425.00 L 595.45,421.88 L 595.14,425.00 L 204.86,425.00 L 205.20,428.12 L 595.14,425.00 L 594.80,428.12 L 205.20,428.12 L 205.59,431.25 L 594.80,428.12 L 594.41,431.25 L 205.59,431.25 L 206.02,434.38 L 594.41,431.25 L 593.98,434.38 L 206.02,434.38 L 206.25,435.96 L 206.25,435.96 L 206.48,437.50 L 593.75,435.96 L 593.52,437.50 L 593.75,435.96 L 593.98,434.38 L 206.48,437.50 L 206.98,440.62 L 593.52,437.50 L 593.02,440.62 L 206.98,440.62 L 207.52,443.75 L 593.02,440.62 L 592.48,443.75 L 207.52,443.75 L 208.10,446.88 L 592.48,443.75 L 591.90,446.88 L 208.10,446.88 L 208.72,450.00 L 591.90,446.88 L 591.28,450.00 L 208.72,450.00 L 209.37,453.12 L 591.28,450.00 L 590.63,453.12 L 209.37,453.12 L 209.38,453.16 L 209.38,453.16 L 210.05,456.25 L 590.62,453.16 L 589.95,456.25 L 590.62,453.16 L 590.63,453.12 L 210.05,456.25 L 210.77,459.38 L 589.95,456.25 L 589.23,459.38 L 210.77,459.38 L 211.52,462.50 L 589.23,459.38 L 588.48,462.50 L 211.52,462.50 L 212.31,465.62 L 588.48,462.50 L 587.69,465.62 L 212.31,465.62 L 212.50,466.36 L 212.50,466.36 L 213.12,468.75 L 587.50,466.36 L 586.88,468.75 L 587.50,466.36 L 587.69,465.62 L 213.12,468.75 L 213.97,471.88 L 586.88,468.75 L 586.03,471.88 L 213.97,471.88 L 214.84,475.00 L 586.03,471.88 L 585.16,475.00 L 214.84,475.00 L 215.62,477.72 L 215.62,477.72 L 215.74,478.12 L 584.38,477.72 L 584.26,478.12 L 584.38,477.72 L 585.16,475.00 L 215.74,478.12 L 216.67,481.25 L 584.26,478.12 L 583.33,481.25 L 216.67,481.25 L 217.62,484.38 L 583.33,481.25 L 582.38,484.38 L 217.62,484.38 L 218.59,487.50 L 582.38,484.38 L 581.41,487.50 L 218.59,487.50 L 218.75,488.01 L 218.75,488.01 L 219.58,490.62 L 581.25,488.01 L 580.42,490.62 L 581.25,488.01 L 581.41,487.50 L 219.58,490.62 L 220.59,493.75 L 580.42,490.62 L 579.41,493.75 L 220.59,493.75 L 221.61,496.88 L 579.41,493.75 L 578.39,496.88 L 221.61,496.88 L 221.88,497.68 L 221.88,497.68 L 222.64,500.00 L 578.12,497.68 L 577.36,500.00 L 578.12,497.68 L 578.39,496.88 L 222.64,500.00 L 223.69,503.12 L 577.36,500.00 L 576.31,503.12 L 223.69,503.12 L 224.74,506.25 L 576.31,503.12 L 575.26,506.25 L 224.74,506.25 L 225.00,507.01 L 225.00,507.01 L 225.80,509.38 L 575.00,507.01 L 574.20,509.38 L 575.00,507.01 L 575.26,506.25 L 225.80,509.38 L 226.86,512.50 L 574.20,509.38 L 573.14,512.50 L 226.86,512.50 L 227.92,515.62 L 573.14,512.50 L 572.08,515.62 L 227.92,515.62 L 228.12,516.23 L 228.12,516.23 L 228.98,518.75 L 571.88,516.23 L 571.02,518.75 L 571.88,516.23 L 572.08,515.62 L 228.98,518.75 L 230.02,521.88 L 571.02,518.75 L 569.98,521.88 L 230.02,521.88 L 231.06,525.00 L 569.98,521.88 L 568.94,525.00 L 231.06,525.00 L 231.25,525.58 L 231.25,525.58 L 232.09,528.12 L 568.75,525.58 L 567.91,528.12 L 568.75,525.58 L 568.94,525.00 L 232.09,528.12 L 233.09,531.25 L 567.91,528.12 L 566.91,531.25 L 233.09,531.25 L 234.08,534.38 L 566.91,531.25 L 565.92,534.38 L 234.08,534.38 L 234.38,535.34 L 234.38,535.34 L 235.04,537.50 L 565.62,535.34 L 564.96,537.50 L 565.62,535.34 L 565.92,534.38 L 235.04,537.50 L 235.98,540.62 L 564.96,537.50 L 564.02,540.62 L 235.98,540.62 L 236.88,543.75 L 564.02,540.62 L 563.12,543.75 L 236.88,543.75 L 237.50,545.96 L 237.50,545.96 L 238.24,546.88 L 562.50,545.96 L 561.76,546.88 L 562.50,545.96 L 563.12,543.75 L 238.24,546.88 L 240.62,547.67 L 240.62,547.67 L 243.75,548.65 L 243.75,548.65 L 246.88,549.68 L 246.88,549.68 L 247.80,550.00 L 553.12,549.68 L 552.20,550.00 L 553.12,549.68 L 556.25,548.65 L 556.25,548.65 L 559.38,547.67 L 559.38,547.67 L 561.76,546.88 L 247.80,550.00 L 250.00,550.76 L 250.00,550.76 L 253.12,551.88 L 253.12,551.88 L 256.25,553.04 L 256.25,553.04 L 256.48,553.12 L 543.75,553.04 L 543.52,553.12 L 543.75,553.04 L 546.88,551.88 L 546.88,551.88 L 550.00,550.76 L 550.00,550.76 L 552.20,550.00 L 256.48,553.12 L 259.38,554.23 L 259.38,554.23 L 262.50,555.46 L 262.50,555.46 L 264.47,556.25 L 537.50,555.46 L 535.53,556.25 L 537.50,555.46 L 540.62,554.23 L 540.62,554.23 L 543.52,553.12 L 264.47,556.25 L 265.62,556.71 L 265.62,556.71 L 268.75,557.99 L 268.75,557.99 L 271.88,559.29 L 271.88,559.29 L 272.07,559.38 L 528.12,559.29 L 527.93,559.38 L 528.12,559.29 L 531.25,557.99 L 531.25,557.99 L 534.38,556.71 L 534.38,556.71 L 535.53,556.25 L 272.07,559.38 L 275.00,560.61 L 275.00,560.61 L 278.12,561.94 L 278.12,561.94 L 279.44,562.50 L 521.88,561.94 L 520.56,562.50 L 521.88,561.94 L 525.00,560.61 L 525.00,560.61 L 527.93,559.38 L 279.44,562.50 L 281.25,563.27 L 281.25,563.27 L 284.38,564.61 L 284.38,564.61 L 286.73,565.62 L 515.62,564.61 L 513.27,565.62 L 515.62,564.61 L 518.75,563.27 L 518.75,563.27 L 520.56,562.50 L 286.73,565.62 L 287.50,565.96 L 287.50,565.96 L 290.62,567.29 L 290.62,567.29 L 293.75,568.63 L 293.75,568.63 L 294.04,568.75 L 506.25,568.63 L 505.96,568.75 L 506.25,568.63 L 509.38,567.29 L 509.38,567.29 L 512.50,565.96 L 512.50,565.96 L 513.27,565.62 L 294.04,568.75 L 296.88,569.95 L 296.88,569.95 L 300.00,571.25 L 300.00,571.25 L 301.50,571.88 L 500.00,571.25 L 498.50,571.88 L 500.00,571.25 L 503.12,569.95 L 503.12,569.95 L 505.96,568.75 L 301.50,571.88 L 303.12,572.54 L 303.12,572.54 L 306.25,573.81 L 306.25,573.81 L 309.21,575.00 L 493.75,573.81 L 490.79,575.00 L 493.75,573.81 L 496.88,572.54 L 496.88,572.54 L 498.50,571.88 L 309.21,575.00 L 309.38,575.06 L 309.38,575.06 L 312.50,576.29 L 312.50,576.29 L 315.62,577.48 L 315.62,577.48 L 317.34,578.12 L 484.38,577.48 L 482.66,578.12 L 484.38,577.48 L 487.50,576.29 L 487.50,576.29 L 490.62,575.06 L 490.62,575.06 L 490.79,575.00 L 317.34,578.12 L 318.75,578.65 L 318.75,578.65 L 321.88,579.79 L 321.88,579.79 L 325.00,580.89 L 325.00,580.89 L 326.05,581.25 L 475.00,580.89 L 473.95,581.25 L 475.00,580.89 L 478.12,579.79 L 478.12,579.79 L 481.25,578.65 L 481.25,578.65 L 482.66,578.12 L 326.05,581.25 L 328.12,581.96 L 328.12,581.96 L 331.25,582.99 L 331.25,582.99 L 334.38,583.98 L 334.38,583.98 L 335.67,584.38 L 465.62,583.98 L 464.33,584.38 L 465.62,583.98 L 468.75,582.99 L 468.75,582.99 L 471.88,581.96 L 471.88,581.96 L 473.95,581.25 L 335.67,584.38 L 337.50,584.93 L 337.50,584.93 L 340.62,585.84 L 340.62,585.84 L 343.75,586.71 L 343.75,586.71 L 346.71,587.50 L 456.25,586.71 L 453.29,587.50 L 456.25,586.71 L 459.38,585.84 L 459.38,585.84 L 462.50,584.93 L 462.50,584.93 L 464.33,584.38 L 346.71,587.50 L 346.88,587.54 L 346.88,587.54 L 350.00,588.33 L 350.00,588.33 L 353.12,589.07 L 353.12,589.07 L 356.25,589.76 L 356.25,589.76 L 359.38,590.41 L 359.38,590.41 L 360.47,590.62 L 440.62,590.41 L 439.53,590.62 L 440.62,590.41 L 443.75,589.76 L 443.75,589.76 L 446.88,589.07 L 446.88,589.07 L 450.00,588.33 L 450.00,588.33 L 453.12,587.54 L 453.12,587.54 L 453.29,587.50 L 360.47,590.62 L 362.50,591.02 L 362.50,591.02 L 365.62,591.57 L 365.62,591.57 L 368.75,592.08 L 368.75,592.08 L 371.88,592.55 L 371.88,592.55 L 375.00,592.96 L 375.00,592.96 L 378.12,593.33 L 378.12,593.33 L 381.25,593.65 L 381.25,593.65 L 382.46,593.75 L 418.75,593.65 L 417.54,593.75 L 418.75,593.65 L 421.88,593.33 L 421.88,593.33 L 425.00,592.96 L 425.00,592.96 L 428.12,592.55 L 428.12,592.55 L 431.25,592.08 L 431.25,592.08 L 434.38,591.57 L 434.38,591.57 L 437.50,591.02 L 437.50,591.02 L 439.53,590.62 L 382.46,593.75 L 384.38,593.91 L 384.38,593.91 L 387.50,594.14 L 387.50,594.14 L 390.62,594.31 L 390.62,594.31 L 393.75,594.43 L 393.75,594.43 L 396.88,594.50 L 396.88,594.50 L 400.00,594.53 L 400.00,594.53 L 403.12,594.50 L 403.12,594.50 L 406.25,594.43 L 406.25,594.43 L 409.38,594.31 L 409.38,594.31 L 412.50,594.14 L 412.50,594.14 L 415.62,593.91 L 415.62,593.91 L 417.54,593.75 Z" fill="none" stroke="#00ffcc" stroke-width="10" stroke-linejoin="round" filter="drop-shadow(0px 0px 8px #00ffcc)"/>
  <script>
    let p=0,bpm=128.000000,s=Date.now();
    function a(){
      let e=(Date.now()-s)/1000;
      p=(e*(bpm/60))%1;
      document.getElementById('omni').setAttribute('transform',`rotate(${p*360} 400 400)`);
      document.getElementById('omni').setAttribute('stroke', `hsl(${p*360},100%,${50 + 20*Math.sin(p*2*Math.PI)}%)`);
      requestAnimationFrame(a);
    }
    a();
  </script>
</svg>