<svg xmlns="http://www.w3.org/2000/svg" width="800" height="800" viewBox="0 0 800 800">
  <defs>
    <style>@import url('https://fonts.googleapis.com/css2?family=Press+Start+2P');</style>
  </defs>
  <rect width="800" height="800" fill="#020205" />
  <path id="omni" d="M 748.83,231.34 L 51.17,231.23 L 377.01,238.80 L 379.99,237.00 L 383.01,235.45 L 386.07,234.15 L 389.15,233.09 L 392.27,232.27 L 395.43,231.69 L 398.77,231.34 L 401.23,231.23 L 404.57,231.34 L 407.73,231.69 L 410.85,232.27 L 413.93,233.09 L 416.99,234.15 L 420.01,235.45 L 422.99,237.00 L 351.74,245.86 L 353.04,243.23 L 354.01,240.88 L 354.49,238.81 L 445.51,237.00 L 445.99,238.81 L 446.96,240.88 L 448.26,243.23 L 335.16,252.06 L 335.88,248.81 L 336.24,245.87 L 463.76,243.22 L 464.12,245.87 L 464.84,248.81 L 321.94,259.63 L 322.46,255.68 L 322.69,252.08 L 477.31,248.80 L 477.54,252.08 L 478.06,255.68 L 311.34,264.03 L 311.59,259.67 L 488.41,255.68 L 488.66,259.67 L 302.08,268.87 L 302.16,264.05 L 497.84,259.63 L 497.92,264.05 L 293.69,279.96 L 293.90,274.20 L 293.90,268.87 L 506.10,263.97 L 506.10,268.87 L 506.31,274.20 L 286.47,286.47 L 286.61,280.08 L 513.39,274.18 L 513.53,280.08 L 279.96,293.69 L 280.08,286.61 L 519.92,280.05 L 520.04,286.61 L 274.20,293.90 L 525.80,286.59 L 268.87,302.08 L 268.87,293.90 L 531.13,286.34 L 531.13,293.90 L 264.03,311.34 L 264.05,302.16 L 535.95,293.65 L 535.97,302.16 L 259.63,321.94 L 259.67,311.59 L 540.33,301.97 L 540.37,311.59 L 255.68,322.46 L 544.32,311.54 L 252.06,335.16 L 252.08,322.69 L 547.92,311.11 L 547.94,322.69 L 248.81,335.88 L 551.19,322.53 L 245.86,351.74 L 245.87,336.24 L 554.13,321.85 L 554.14,336.24 L 243.23,353.04 L 556.77,336.13 L 240.88,354.01 L 559.12,335.34 L 238.80,377.01 L 238.81,354.49 L 561.19,333.58 L 561.20,354.49 L 237.00,379.99 L 563.00,354.24 L 235.45,383.01 L 564.55,352.83 L 234.15,386.07 L 565.85,349.42 L 233.09,389.15 L 566.91,342.31 L 232.27,392.27 L 567.73,326.97 L 231.69,395.43 L 568.31,286.91 L 231.34,748.83 L 231.34,398.77 L 568.66,73.70 L 568.66,398.77 L 231.23,51.17 L 231.23,401.23 L 568.77,726.30 L 568.77,401.23 L 231.34,404.57 L 568.66,513.09 L 231.69,407.73 L 568.31,473.03 L 232.27,410.85 L 567.73,457.69 L 233.09,413.93 L 566.91,450.58 L 234.15,416.99 L 565.85,447.17 L 235.45,420.01 L 564.55,445.76 L 237.00,422.99 L 237.00,445.51 L 563.00,466.42 L 563.00,445.51 L 238.81,445.99 L 561.19,464.66 L 240.88,446.96 L 559.12,463.87 L 243.23,448.26 L 243.22,463.76 L 556.78,478.15 L 556.77,463.76 L 245.87,464.12 L 554.13,477.47 L 248.81,464.84 L 248.80,477.31 L 551.20,488.89 L 551.19,477.31 L 252.08,477.54 L 547.92,488.46 L 255.68,478.06 L 255.68,488.41 L 544.32,498.03 L 544.32,488.41 L 259.67,488.66 L 259.63,497.84 L 540.37,506.35 L 540.33,497.84 L 264.05,497.92 L 263.97,506.10 L 536.03,513.66 L 535.95,506.10 L 268.87,506.10 L 531.13,513.41 L 274.20,506.31 L 274.18,513.39 L 525.82,519.95 L 525.80,513.39 L 280.08,513.53 L 280.05,519.92 L 519.95,525.82 L 519.92,519.92 L 286.61,520.04 L 286.59,525.80 L 286.34,531.13 L 513.66,536.03 L 513.41,531.13 L 513.39,525.80 L 293.90,531.13 L 293.65,535.95 L 506.35,540.37 L 506.10,535.95 L 302.16,535.97 L 301.97,540.33 L 498.03,544.32 L 497.84,540.33 L 311.59,540.37 L 311.54,544.32 L 311.11,547.92 L 488.89,551.20 L 488.46,547.92 L 488.41,544.32 L 322.69,547.94 L 322.53,551.19 L 321.85,554.13 L 478.15,556.78 L 477.47,554.13 L 477.31,551.19 L 336.24,554.14 L 336.13,556.77 L 335.34,559.12 L 333.58,561.19 L 466.42,563.00 L 464.66,561.19 L 463.87,559.12 L 463.76,556.77 L 354.49,561.20 L 354.24,563.00 L 352.83,564.55 L 349.42,565.85 L 342.31,566.91 L 326.97,567.73 L 286.91,568.31 L 73.70,568.66 L 726.30,568.77 L 513.09,568.66 L 473.03,568.31 L 457.69,567.73 L 450.58,566.91 L 447.17,565.85 L 445.76,564.55 L 445.51,563.00 L 398.77,568.66 L 401.23,568.77 Z" fill="none" stroke="#00ffcc" stroke-width="6" stroke-linejoin="round" filter="drop-shadow(0px 0px 8px #00ffcc)"/>
  <script>
    let phase = 0, bpm = 128.000000, start = Date.now();
    function animate() {
      let elapsed = (Date.now() - start)/1000;
      phase = (elapsed * (bpm/60)) % 1;
      document.getElementById('omni').setAttribute('transform', `rotate(${phase*360} 400 400)`);
      requestAnimationFrame(animate);
    }
    animate();
  </script>
</svg>