<svg xmlns="http://www.w3.org/2000/svg" width="800" height="800" viewBox="0 0 800 800">
  <rect width="800" height="800" fill="#020205"/>
  <path id="main" d="M 387.50,130.00 L 389.45,132.50 L 392.50,132.50 L 390.00,130.78 L 395.00,132.50 L 392.50,131.55 L 397.50,132.50 L 395.00,132.08 L 400.00,132.50 L 397.50,132.40 L 400.00,132.50 L 400.00,132.50 L 402.50,132.50 L 402.50,132.40 L 405.00,132.50 L 405.00,132.08 L 407.50,132.50 L 407.50,131.55 L 410.00,130.78 L 384.05,135.00 L 387.50,135.00 L 385.00,133.47 L 390.00,132.50 L 390.00,135.00 L 387.50,134.77 L 411.95,132.50 L 410.00,135.00 L 410.00,135.00 L 412.50,135.00 L 412.50,134.77 L 415.00,133.47 L 382.34,137.50 L 385.00,135.00 L 385.00,137.50 L 382.50,136.86 L 416.55,135.00 L 415.00,137.50 L 415.00,137.50 L 417.50,136.86 L 379.86,140.00 L 382.50,137.50 L 382.50,140.00 L 380.00,139.86 L 419.84,137.50 L 417.50,140.00 L 417.50,140.00 L 420.00,139.86 L 376.86,142.50 L 380.00,140.00 L 380.00,142.50 L 377.50,142.34 L 422.36,140.00 L 420.00,142.50 L 420.00,142.50 L 422.50,142.34 L 373.47,145.00 L 377.50,142.50 L 377.50,145.00 L 375.00,144.05 L 424.36,142.50 L 422.50,145.00 L 422.50,145.00 L 425.00,144.05 L 375.00,145.00 L 374.77,147.50 L 425.97,145.00 L 425.00,147.50 L 370.78,150.00 L 375.00,147.50 L 375.00,150.00 L 372.50,149.45 L 427.27,147.50 L 425.00,150.00 L 425.00,150.00 L 427.50,149.45 L 372.50,150.00 L 371.55,152.50 L 428.28,150.00 L 427.50,152.50 L 372.50,152.50 L 372.08,155.00 L 429.05,152.50 L 427.50,155.00 L 372.50,155.00 L 372.40,157.50 L 429.58,155.00 L 427.50,157.50 L 367.50,160.00 L 372.50,157.50 L 372.50,160.00 L 370.00,157.50 L 429.90,157.50 L 427.50,160.00 L 370.00,160.00 L 370.00,160.00 L 372.50,162.50 L 372.40,162.50 L 430.00,160.00 L 427.50,160.00 L 372.50,165.00 L 372.08,165.00 L 429.90,162.50 L 427.50,162.50 L 372.50,167.50 L 371.55,167.50 L 429.58,165.00 L 427.50,165.00 L 372.50,170.00 L 370.78,170.00 L 429.05,167.50 L 427.50,167.50 L 372.50,171.95 L 372.50,170.00 L 375.00,172.50 L 374.77,172.50 L 427.50,170.00 L 427.50,171.95 L 425.00,170.00 L 428.28,170.00 L 375.00,175.00 L 373.47,175.00 L 427.27,172.50 L 425.00,172.50 L 375.00,176.55 L 375.00,175.00 L 377.50,177.50 L 376.86,177.50 L 425.00,175.00 L 425.00,176.55 L 422.50,175.00 L 425.97,175.00 L 377.50,179.84 L 377.50,177.50 L 380.00,180.00 L 379.86,180.00 L 422.50,177.50 L 422.50,179.84 L 420.00,177.50 L 424.36,177.50 L 380.00,182.36 L 380.00,180.00 L 382.50,182.50 L 382.34,182.50 L 420.00,180.00 L 420.00,182.36 L 417.50,180.00 L 422.36,180.00 L 382.50,184.36 L 382.50,182.50 L 385.00,185.00 L 384.05,185.00 L 417.50,182.50 L 417.50,184.36 L 415.00,182.50 L 419.84,182.50 L 385.00,185.97 L 385.00,185.00 L 387.50,187.27 L 387.50,185.00 L 390.00,187.50 L 389.45,187.50 L 412.50,185.00 L 412.50,187.27 L 410.00,185.00 L 415.00,185.00 L 415.00,185.97 L 416.55,185.00 L 390.00,188.28 L 390.00,187.50 L 392.50,189.05 L 392.50,187.50 L 395.00,189.58 L 395.00,187.50 L 397.50,189.90 L 397.50,187.50 L 400.00,190.00 L 402.50,187.50 L 402.50,189.90 L 405.00,187.50 L 405.00,189.58 L 407.50,187.50 L 407.50,189.05 L 410.00,187.50 L 410.00,188.28 L 411.95,187.50 L 223.69,215.00 L 227.50,215.00 L 225.00,213.10 L 230.00,215.00 L 227.50,213.98 L 232.50,215.00 L 230.00,214.48 L 232.50,215.00 L 232.50,214.60 L 235.00,215.00 L 235.00,214.35 L 237.50,215.00 L 237.50,213.72 L 240.00,212.70 L 557.86,215.00 L 562.50,215.00 L 560.00,212.70 L 565.00,215.00 L 562.50,213.72 L 567.50,215.00 L 565.00,214.35 L 567.50,215.00 L 567.50,214.60 L 570.00,215.00 L 570.00,214.48 L 572.50,215.00 L 572.50,213.99 L 575.00,213.10 L 222.24,217.50 L 225.00,215.00 L 225.00,217.50 L 222.50,216.73 L 240.36,215.00 L 240.00,217.50 L 240.00,217.50 L 242.50,216.11 L 556.33,217.50 L 560.00,215.00 L 560.00,217.50 L 557.50,216.11 L 576.19,215.00 L 575.00,217.50 L 575.00,217.50 L 577.50,216.73 L 219.46,220.00 L 222.50,217.50 L 222.50,220.00 L 220.00,219.75 L 243.82,217.50 L 242.50,220.00 L 242.50,220.00 L 245.00,218.81 L 553.57,220.00 L 557.50,217.50 L 557.50,220.00 L 555.00,218.81 L 579.74,217.50 L 577.50,220.00 L 577.50,220.00 L 580.00,219.75 L 215.98,222.50 L 220.00,220.00 L 220.00,222.50 L 217.50,221.70 L 246.07,220.00 L 245.00,222.50 L 245.00,222.50 L 247.50,221.09 L 551.50,222.50 L 555.00,220.00 L 555.00,222.50 L 552.50,221.09 L 581.96,220.00 L 580.00,222.50 L 580.00,222.50 L 582.50,221.70 L 217.50,222.50 L 217.01,225.00 L 249.00,222.50 L 247.50,225.00 L 247.50,225.00 L 250.00,225.00 L 250.00,224.45 L 252.50,222.73 L 545.28,225.00 L 550.00,225.00 L 547.50,222.73 L 552.50,222.50 L 552.50,225.00 L 550.00,224.45 L 583.48,222.50 L 582.50,225.00 L 212.63,227.50 L 217.50,225.00 L 217.50,227.50 L 215.00,225.56 L 252.78,225.00 L 252.50,227.50 L 252.50,227.50 L 255.00,225.42 L 542.88,227.50 L 547.50,225.00 L 547.50,227.50 L 545.00,225.42 L 584.51,225.00 L 582.50,227.50 L 582.50,227.50 L 585.00,225.56 L 215.00,227.50 L 212.84,230.00 L 255.38,227.50 L 255.00,230.00 L 545.00,227.50 L 544.82,230.00 L 585.13,227.50 L 585.00,230.00 L 215.00,232.50 L 212.71,232.50 L 257.32,230.00 L 255.00,232.50 L 255.00,232.50 L 257.50,232.21 L 541.25,232.50 L 545.00,230.00 L 545.00,232.50 L 542.50,232.21 L 585.34,230.00 L 585.00,230.00 L 215.00,233.58 L 215.00,232.50 L 217.50,235.00 L 217.20,235.00 L 258.75,232.50 L 257.50,235.00 L 542.50,232.50 L 542.34,235.00 L 585.00,232.50 L 585.00,233.58 L 582.50,232.50 L 585.21,232.50 L 217.50,237.50 L 216.60,237.50 L 259.84,235.00 L 257.50,237.50 L 257.50,237.50 L 260.00,236.97 L 538.07,237.50 L 542.50,235.00 L 542.50,237.50 L 540.00,236.97 L 584.70,235.00 L 582.50,235.00 L 217.50,237.50 L 217.00,240.00 L 260.57,237.50 L 260.00,240.00 L 540.00,237.50 L 538.50,240.00 L 584.10,237.50 L 582.50,240.00 L 217.50,240.00 L 217.17,242.50 L 261.00,240.00 L 260.00,242.50 L 540.00,240.00 L 538.66,242.50 L 584.50,240.00 L 582.50,242.50 L 217.50,245.00 L 217.05,245.00 L 261.16,242.50 L 260.00,242.50 L 540.00,245.00 L 538.55,245.00 L 584.67,242.50 L 582.50,242.50 L 217.50,247.50 L 216.66,247.50 L 261.05,245.00 L 260.00,245.00 L 540.00,247.50 L 538.16,247.50 L 584.55,245.00 L 582.50,245.00 L 217.50,250.00 L 215.97,250.00 L 260.00,247.50 L 260.00,249.98 L 257.50,247.50 L 260.66,247.50 L 540.00,249.98 L 540.00,247.50 L 542.50,250.00 L 542.49,250.00 L 584.16,247.50 L 582.50,247.50 L 217.50,252.46 L 217.50,250.00 L 220.00,252.50 L 219.98,252.50 L 259.99,250.00 L 257.50,250.00 L 389.45,252.50 L 392.50,252.50 L 390.00,250.78 L 395.00,252.50 L 392.50,251.55 L 397.50,252.50 L 395.00,252.08 L 400.00,252.50 L 397.50,252.40 L 400.00,252.50 L 400.00,252.50 L 402.50,252.50 L 402.50,252.40 L 405.00,252.50 L 405.00,252.08 L 407.50,252.50 L 407.50,251.55 L 410.00,250.78 L 542.50,252.50 L 541.47,252.50 L 582.50,250.00 L 582.50,252.46 L 580.00,250.00 L 583.47,250.00 L 220.00,255.00 L 218.59,255.00 L 258.97,252.50 L 257.50,252.50 L 384.05,255.00 L 387.50,255.00 L 385.00,253.47 L 390.00,252.50 L 390.00,255.00 L 387.50,254.77 L 411.95,252.50 L 410.00,255.00 L 410.00,255.00 L 412.50,255.00 L 412.50,254.77 L 415.00,253.47 L 542.50,255.00 L 540.11,255.00 L 582.48,252.50 L 580.00,252.50 L 220.00,256.55 L 220.00,255.00 L 222.50,257.50 L 221.75,257.50 L 257.50,255.00 L 257.50,255.17 L 255.00,255.00 L 257.61,255.00 L 382.34,257.50 L 385.00,255.00 L 385.00,257.50 L 382.50,256.86 L 416.55,255.00 L 415.00,257.50 L 415.00,257.50 L 417.50,256.86 L 542.50,255.17 L 542.50,255.00 L 545.00,257.50 L 543.26,257.50 L 580.00,255.00 L 580.00,256.55 L 577.50,255.00 L 581.09,255.00 L 222.50,259.35 L 222.50,257.50 L 225.00,260.00 L 224.29,260.00 L 255.00,257.50 L 255.00,258.35 L 252.50,257.50 L 255.76,257.50 L 379.86,260.00 L 382.50,257.50 L 382.50,260.00 L 380.00,259.86 L 419.84,257.50 L 417.50,260.00 L 417.50,260.00 L 420.00,259.86 L 545.00,258.35 L 545.00,257.50 L 547.50,260.00 L 545.79,260.00 L 577.50,257.50 L 577.50,259.35 L 575.00,257.50 L 579.25,257.50 L 225.00,261.41 L 225.00,260.00 L 227.50,262.50 L 225.79,262.50 L 250.00,260.00 L 250.00,262.41 L 247.50,260.00 L 252.50,260.00 L 252.50,260.66 L 253.29,260.00 L 376.86,262.50 L 380.00,260.00 L 380.00,262.50 L 377.50,262.34 L 422.36,260.00 L 420.00,262.50 L 420.00,262.50 L 422.50,262.34 L 547.50,260.66 L 547.50,260.00 L 550.00,262.41 L 550.00,260.00 L 552.50,262.50 L 552.33,262.50 L 575.00,260.00 L 575.00,261.40 L 572.50,260.00 L 576.79,260.00 L 227.50,262.96 L 227.50,262.50 L 230.00,264.09 L 230.00,262.50 L 232.50,264.91 L 232.50,262.50 L 235.00,265.00 L 234.58,265.00 L 245.00,262.50 L 245.00,264.62 L 242.50,262.50 L 247.50,262.50 L 247.50,263.68 L 249.83,262.50 L 373.47,265.00 L 377.50,262.50 L 377.50,265.00 L 375.00,264.05 L 424.36,262.50 L 422.50,265.00 L 422.50,265.00 L 425.00,264.05 L 552.50,263.68 L 552.50,262.50 L 555.00,264.62 L 555.00,262.50 L 557.50,265.00 L 556.03,265.00 L 567.50,262.50 L 567.50,264.91 L 565.00,262.50 L 570.00,262.50 L 570.00,264.09 L 572.50,262.50 L 572.50,262.96 L 573.29,262.50 L 235.00,265.41 L 235.00,265.00 L 237.50,265.63 L 240.00,265.00 L 240.00,265.57 L 242.50,265.00 L 242.50,265.25 L 243.53,265.00 L 375.00,265.00 L 374.77,267.50 L 425.97,265.00 L 425.00,267.50 L 557.50,265.25 L 557.50,265.00 L 560.00,265.57 L 560.00,265.00 L 562.50,265.63 L 565.00,265.00 L 565.00,265.41 L 567.08,265.00 L 370.78,270.00 L 375.00,267.50 L 375.00,270.00 L 372.50,269.45 L 427.27,267.50 L 425.00,270.00 L 425.00,270.00 L 427.50,269.45 L 372.50,270.00 L 371.55,272.50 L 428.28,270.00 L 427.50,272.50 L 372.50,272.50 L 372.08,275.00 L 429.05,272.50 L 427.50,275.00 L 372.50,275.00 L 372.40,277.50 L 429.58,275.00 L 427.50,277.50 L 367.50,280.00 L 372.50,277.50 L 372.50,280.00 L 370.00,277.50 L 429.90,277.50 L 427.50,280.00 L 370.00,280.00 L 370.00,280.00 L 372.50,282.50 L 372.40,282.50 L 430.00,280.00 L 427.50,280.00 L 372.50,285.00 L 372.08,285.00 L 429.90,282.50 L 427.50,282.50 L 363.95,287.50 L 367.50,287.50 L 365.00,285.47 L 370.00,287.50 L 367.50,286.21 L 372.50,285.00 L 372.50,287.50 L 370.00,287.04 L 429.58,285.00 L 427.50,287.50 L 427.50,287.50 L 430.00,287.50 L 430.00,287.04 L 432.50,287.50 L 432.50,286.21 L 435.00,285.47 L 307.34,290.00 L 310.00,290.00 L 307.50,288.39 L 312.50,290.00 L 310.00,289.08 L 315.00,290.00 L 312.50,289.52 L 315.00,290.00 L 315.00,289.73 L 317.50,290.00 L 317.50,289.71 L 320.00,290.00 L 320.00,289.46 L 322.50,290.00 L 322.50,288.97 L 325.00,288.24 L 355.92,290.00 L 360.00,290.00 L 357.50,287.86 L 362.50,290.00 L 360.00,288.79 L 365.00,287.50 L 365.00,290.00 L 362.50,289.66 L 436.45,287.50 L 435.00,290.00 L 435.00,290.00 L 437.50,290.00 L 437.50,289.66 L 440.00,290.00 L 440.00,288.79 L 442.50,287.86 L 474.37,290.00 L 477.50,290.00 L 475.00,288.24 L 480.00,290.00 L 477.50,288.97 L 482.50,290.00 L 480.00,289.46 L 485.00,290.00 L 482.50,289.71 L 485.00,290.00 L 485.00,289.73 L 487.50,290.00 L 487.50,289.52 L 490.00,290.00 L 490.00,289.08 L 492.50,288.39 L 293.22,292.50 L 297.50,292.50 L 295.00,290.25 L 297.50,292.50 L 297.50,290.55 L 302.50,292.50 L 300.00,290.30 L 305.00,292.50 L 302.50,291.17 L 307.50,290.00 L 307.50,292.50 L 305.00,292.44 L 326.87,290.00 L 325.00,292.50 L 325.00,292.50 L 327.50,292.50 L 327.50,292.23 L 330.00,290.91 L 351.79,292.50 L 355.00,292.50 L 352.50,290.81 L 357.50,290.00 L 357.50,292.50 L 355.00,291.87 L 443.42,290.00 L 442.50,292.50 L 442.50,292.50 L 445.00,292.50 L 445.00,291.87 L 447.50,290.81 L 468.92,292.50 L 472.50,292.50 L 470.00,290.91 L 475.00,290.00 L 475.00,292.50 L 472.50,292.23 L 494.84,290.00 L 492.50,292.50 L 492.50,292.50 L 495.00,292.50 L 495.00,292.44 L 497.50,292.50 L 497.50,291.17 L 502.50,292.50 L 500.00,290.30 L 502.50,292.50 L 502.50,290.55 L 505.00,290.25 L 292.43,295.00 L 295.00,292.50 L 295.00,295.00 L 292.50,294.24 L 331.42,292.50 L 330.00,295.00 L 330.00,295.00 L 332.50,294.24 L 346.91,295.00 L 350.00,295.00 L 347.50,293.47 L 352.50,292.50 L 352.50,295.00 L 350.00,294.67 L 449.29,292.50 L 447.50,295.00 L 447.50,295.00 L 450.00,295.00 L 450.00,294.67 L 452.50,293.47 L 467.09,295.00 L 470.00,292.50 L 470.00,295.00 L 467.50,294.24 L 505.72,292.50 L 505.00,295.00 L 505.00,295.00 L 507.50,294.24 L 289.28,297.50 L 292.50,295.00 L 292.50,297.50 L 290.00,297.43 L 334.59,295.00 L 332.50,297.50 L 332.50,297.50 L 335.00,297.11 L 341.48,297.50 L 345.00,297.50 L 342.50,295.84 L 347.50,295.00 L 347.50,297.50 L 345.00,297.20 L 454.41,295.00 L 452.50,297.50 L 452.50,297.50 L 455.00,297.50 L 455.00,297.20 L 457.50,295.84 L 464.48,297.50 L 467.50,295.00 L 467.50,297.50 L 465.00,297.11 L 509.93,295.00 L 507.50,297.50 L 507.50,297.50 L 510.00,297.43 L 285.31,300.00 L 290.00,297.50 L 290.00,300.00 L 287.50,298.38 L 336.98,297.50 L 335.00,300.00 L 335.00,300.00 L 340.00,300.00 L 337.50,299.36 L 342.50,297.50 L 342.50,300.00 L 340.00,299.41 L 458.98,297.50 L 457.50,300.00 L 457.50,300.00 L 460.00,300.00 L 460.00,299.41 L 465.00,297.50 L 465.00,300.00 L 462.50,299.36 L 511.78,297.50 L 510.00,300.00 L 510.00,300.00 L 512.50,298.38 L 287.50,300.00 L 285.64,302.50 L 512.81,300.00 L 512.50,302.50 L 287.50,305.00 L 285.41,305.00 L 513.14,302.50 L 512.50,302.50 L 287.50,306.30 L 287.50,305.00 L 290.00,307.50 L 289.53,307.50 L 512.50,305.00 L 512.50,306.30 L 510.00,305.00 L 512.91,305.00 L 290.00,307.50 L 288.88,310.00 L 512.03,307.50 L 510.00,310.00 L 290.00,310.00 L 288.74,312.50 L 511.38,310.00 L 510.00,312.50 L 290.00,312.50 L 288.87,315.00 L 511.24,312.50 L 510.00,315.00 L 290.00,317.50 L 288.76,317.50 L 511.37,315.00 L 510.00,315.00 L 290.00,320.00 L 288.43,320.00 L 511.26,317.50 L 510.00,317.50 L 290.00,322.50 L 287.86,322.50 L 510.93,320.00 L 510.00,320.00 L 290.00,323.62 L 290.00,322.50 L 292.50,325.00 L 292.03,325.00 L 510.00,322.50 L 510.00,323.62 L 507.50,322.50 L 510.36,322.50 L 292.50,327.50 L 290.92,327.50 L 509.53,325.00 L 507.50,325.00 L 292.50,329.15 L 292.50,327.50 L 295.00,330.00 L 294.49,330.00 L 507.50,327.50 L 507.50,329.15 L 505.00,327.50 L 508.42,327.50 L 295.00,332.50 L 292.67,332.50 L 506.99,330.00 L 505.00,330.00 L 295.00,332.70 L 295.00,332.50 L 297.50,335.00 L 295.34,335.00 L 505.00,332.50 L 505.00,332.70 L 502.50,332.50 L 505.17,332.50 L 297.50,335.32 L 297.50,335.00 L 300.00,337.50 L 297.96,337.50 L 502.50,335.00 L 502.50,335.32 L 500.00,335.00 L 502.84,335.00 L 300.00,337.50 L 299.41,340.00 L 500.46,337.50 L 500.00,340.00 L 295.84,342.50 L 300.00,340.00 L 300.00,342.50 L 297.50,341.48 L 501.91,340.00 L 500.00,342.50 L 500.00,342.50 L 502.50,341.48 L 297.50,342.50 L 297.20,345.00 L 503.34,342.50 L 502.50,345.00 L 293.47,347.50 L 297.50,345.00 L 297.50,347.50 L 295.00,346.91 L 504.70,345.00 L 502.50,347.50 L 502.50,347.50 L 505.00,346.91 L 295.00,347.50 L 294.67,350.00 L 505.97,347.50 L 505.00,350.00 L 290.81,352.50 L 295.00,350.00 L 295.00,352.50 L 292.50,351.79 L 507.17,350.00 L 505.00,352.50 L 505.00,352.50 L 507.50,351.79 L 292.50,352.50 L 291.87,355.00 L 508.31,352.50 L 507.50,355.00 L 287.86,357.50 L 292.50,355.00 L 292.50,357.50 L 290.00,355.92 L 509.37,355.00 L 507.50,357.50 L 507.50,357.50 L 510.00,355.92 L 290.00,357.50 L 288.79,360.00 L 510.36,357.50 L 510.00,360.00 L 290.00,360.00 L 289.66,362.50 L 511.29,360.00 L 510.00,362.50 L 285.47,365.00 L 290.00,362.50 L 290.00,365.00 L 287.50,363.95 L 512.16,362.50 L 510.00,365.00 L 510.00,365.00 L 512.50,363.95 L 287.50,365.00 L 286.21,367.50 L 512.97,365.00 L 512.50,367.50 L 287.50,367.50 L 286.90,370.00 L 513.71,367.50 L 512.50,370.00 L 165.32,372.50 L 170.00,372.50 L 167.50,370.09 L 172.50,372.50 L 170.00,370.54 L 175.00,372.50 L 172.50,370.76 L 175.00,372.50 L 175.00,370.77 L 177.50,372.50 L 177.50,370.55 L 180.00,370.10 L 282.52,372.50 L 287.50,370.00 L 287.50,372.50 L 285.00,370.09 L 514.40,370.00 L 512.50,372.50 L 512.50,372.50 L 515.00,370.09 L 617.88,372.50 L 622.50,372.50 L 620.00,370.10 L 625.00,372.50 L 622.50,370.55 L 625.00,372.50 L 625.00,370.77 L 627.50,372.50 L 627.50,370.76 L 630.00,372.50 L 630.00,370.54 L 632.50,370.09 L 161.93,375.00 L 165.00,375.00 L 162.50,373.44 L 167.50,372.50 L 167.50,375.00 L 165.00,374.39 L 180.38,372.50 L 180.00,375.00 L 180.00,375.00 L 182.50,375.00 L 182.50,374.41 L 185.00,373.47 L 285.00,372.50 L 283.96,375.00 L 515.02,372.50 L 515.00,375.00 L 614.50,375.00 L 617.50,375.00 L 615.00,373.47 L 620.00,372.50 L 620.00,375.00 L 617.50,374.41 L 632.82,372.50 L 632.50,375.00 L 632.50,375.00 L 635.00,375.00 L 635.00,374.39 L 637.50,373.44 L 155.85,377.50 L 160.00,377.50 L 157.50,375.63 L 162.50,375.00 L 162.50,377.50 L 160.00,377.21 L 187.00,375.00 L 185.00,377.50 L 185.00,377.50 L 187.50,377.50 L 187.50,377.24 L 190.00,375.68 L 270.95,377.50 L 275.00,377.50 L 272.50,375.41 L 277.50,377.50 L 275.00,376.21 L 280.00,377.50 L 277.50,376.73 L 281.25,377.50 L 280.00,376.99 L 285.00,375.00 L 282.50,377.50 L 282.50,376.99 L 516.46,375.00 L 517.50,377.50 L 515.00,377.50 L 518.75,377.50 L 517.50,376.99 L 520.00,377.50 L 520.00,376.99 L 522.50,377.50 L 522.50,376.73 L 525.00,377.50 L 525.00,376.21 L 527.50,375.41 L 608.41,377.50 L 612.50,377.50 L 610.00,375.68 L 615.00,375.00 L 615.00,377.50 L 612.50,377.24 L 639.43,375.00 L 637.50,377.50 L 637.50,377.50 L 640.00,377.50 L 640.00,377.21 L 642.50,375.63 L 153.71,380.00 L 157.50,377.50 L 157.50,380.00 L 155.00,378.64 L 190.91,377.50 L 190.00,380.00 L 190.00,380.00 L 192.50,378.70 L 252.54,380.00 L 257.50,380.00 L 255.00,377.51 L 257.50,380.00 L 257.50,377.69 L 260.00,377.57 L 265.56,380.00 L 270.00,380.00 L 267.50,377.81 L 272.50,377.50 L 272.50,380.00 L 270.00,379.28 L 528.45,377.50 L 527.50,380.00 L 527.50,380.00 L 530.00,380.00 L 530.00,379.28 L 532.50,377.81 L 537.90,380.00 L 542.50,380.00 L 540.00,377.57 L 542.50,380.00 L 542.50,377.69 L 545.00,377.51 L 606.28,380.00 L 610.00,377.50 L 610.00,380.00 L 607.50,378.70 L 643.35,377.50 L 642.50,380.00 L 642.50,380.00 L 645.00,378.64 L 150.94,382.50 L 155.00,380.00 L 155.00,382.50 L 152.50,381.12 L 193.78,380.00 L 192.50,382.50 L 192.50,382.50 L 195.00,381.19 L 249.81,382.50 L 252.50,382.50 L 250.00,381.12 L 255.00,380.00 L 255.00,382.50 L 252.50,381.99 L 260.40,380.00 L 260.00,382.50 L 260.00,382.50 L 262.50,382.50 L 262.50,382.12 L 267.50,380.00 L 267.50,382.50 L 265.00,381.33 L 533.06,380.00 L 532.50,382.50 L 532.50,382.50 L 537.50,382.50 L 535.00,381.33 L 540.00,380.00 L 540.00,382.50 L 537.50,382.12 L 545.04,380.00 L 545.00,382.50 L 545.00,382.50 L 547.50,382.50 L 547.50,381.99 L 550.00,381.12 L 603.50,382.50 L 607.50,380.00 L 607.50,382.50 L 605.00,381.19 L 646.21,380.00 L 645.00,382.50 L 645.00,382.50 L 647.50,381.12 L 147.70,385.00 L 152.50,382.50 L 152.50,385.00 L 150.00,382.81 L 196.00,382.50 L 195.00,385.00 L 195.00,385.00 L 197.50,382.91 L 243.23,385.00 L 247.50,385.00 L 245.00,383.13 L 250.00,382.50 L 250.00,385.00 L 247.50,384.89 L 552.31,382.50 L 550.00,385.00 L 550.00,385.00 L 552.50,385.00 L 552.50,384.89 L 555.00,383.13 L 600.27,385.00 L 605.00,382.50 L 605.00,385.00 L 602.50,382.91 L 648.44,382.50 L 647.50,385.00 L 647.50,385.00 L 650.00,382.81 L 150.00,385.00 L 149.09,387.50 L 197.77,385.00 L 197.50,387.50 L 240.59,387.50 L 245.00,385.00 L 245.00,387.50 L 242.50,385.70 L 555.73,385.00 L 555.00,387.50 L 555.00,387.50 L 557.50,385.70 L 602.50,385.00 L 601.66,387.50 L 650.20,385.00 L 650.00,387.50 L 145.18,390.00 L 150.00,387.50 L 150.00,390.00 L 147.50,387.94 L 199.16,387.50 L 197.50,390.00 L 197.50,390.00 L 200.00,388.10 L 242.50,387.50 L 242.28,390.00 L 558.09,387.50 L 557.50,390.00 L 597.75,390.00 L 602.50,387.50 L 602.50,390.00 L 600.00,388.10 L 651.59,387.50 L 650.00,390.00 L 650.00,390.00 L 652.50,387.94 L 147.50,390.00 L 145.99,392.50 L 200.25,390.00 L 200.00,392.50 L 238.48,392.50 L 242.50,390.00 L 242.50,392.50 L 240.00,392.09 L 559.78,390.00 L 557.50,392.50 L 557.50,392.50 L 560.00,392.09 L 600.00,390.00 L 598.56,392.50 L 652.68,390.00 L 652.50,392.50 L 147.50,392.50 L 146.56,395.00 L 201.06,392.50 L 200.00,395.00 L 240.00,392.50 L 239.30,395.00 L 560.98,392.50 L 560.00,395.00 L 600.00,392.50 L 599.13,395.00 L 653.49,392.50 L 652.50,395.00 L 147.50,395.00 L 146.90,397.50 L 201.63,395.00 L 200.00,397.50 L 240.00,395.00 L 239.78,397.50 L 561.80,395.00 L 560.00,397.50 L 600.00,395.00 L 599.46,397.50 L 654.06,395.00 L 652.50,397.50 L 147.50,397.50 L 147.01,400.00 L 201.96,397.50 L 200.00,400.00 L 240.00,397.50 L 239.94,400.00 L 562.28,397.50 L 560.00,400.00 L 600.00,397.50 L 599.58,400.00 L 654.40,397.50 L 652.50,400.00 L 147.50,402.50 L 146.90,402.50 L 202.08,400.00 L 200.00,400.00 L 240.00,402.50 L 239.78,402.50 L 562.44,400.00 L 560.00,400.00 L 600.00,402.50 L 599.46,402.50 L 654.51,400.00 L 652.50,400.00 L 147.50,405.00 L 146.56,405.00 L 201.96,402.50 L 200.00,402.50 L 240.00,405.00 L 239.30,405.00 L 562.28,402.50 L 560.00,402.50 L 600.00,405.00 L 599.13,405.00 L 654.40,402.50 L 652.50,402.50 L 147.50,407.50 L 145.99,407.50 L 201.63,405.00 L 200.00,405.00 L 240.00,407.50 L 238.48,407.50 L 561.80,405.00 L 560.00,405.00 L 600.00,407.50 L 598.56,407.50 L 654.06,405.00 L 652.50,405.00 L 147.50,410.00 L 145.18,410.00 L 201.06,407.50 L 200.00,407.50 L 240.00,409.59 L 240.00,407.50 L 242.50,410.00 L 242.28,410.00 L 560.00,407.50 L 560.00,409.59 L 557.50,407.50 L 560.98,407.50 L 600.00,410.00 L 597.75,410.00 L 653.49,407.50 L 652.50,407.50 L 147.50,410.44 L 147.50,410.00 L 150.00,412.50 L 149.09,412.50 L 200.00,410.00 L 200.00,410.60 L 197.50,410.00 L 200.25,410.00 L 242.50,412.50 L 240.59,412.50 L 559.78,410.00 L 557.50,410.00 L 600.00,410.60 L 600.00,410.00 L 602.50,412.50 L 601.66,412.50 L 652.50,410.00 L 652.50,410.44 L 650.00,410.00 L 652.68,410.00 L 150.00,415.00 L 147.70,415.00 L 199.16,412.50 L 197.50,412.50 L 242.50,413.20 L 242.50,412.50 L 245.00,415.00 L 243.23,415.00 L 557.50,412.50 L 557.50,413.20 L 555.00,412.50 L 558.09,412.50 L 602.50,415.00 L 600.27,415.00 L 651.59,412.50 L 650.00,412.50 L 150.00,415.31 L 150.00,415.00 L 152.50,417.50 L 150.94,417.50 L 197.50,415.00 L 197.50,415.41 L 195.00,415.00 L 197.77,415.00 L 245.00,415.63 L 245.00,415.00 L 247.50,417.39 L 247.50,415.00 L 250.00,417.50 L 249.81,417.50 L 552.50,415.00 L 552.50,417.39 L 550.00,415.00 L 555.00,415.00 L 555.00,415.63 L 555.73,415.00 L 602.50,415.41 L 602.50,415.00 L 605.00,417.50 L 603.50,417.50 L 650.00,415.00 L 650.00,415.31 L 647.50,415.00 L 650.20,415.00 L 152.50,418.62 L 152.50,417.50 L 155.00,420.00 L 153.71,420.00 L 195.00,417.50 L 195.00,418.69 L 192.50,417.50 L 196.00,417.50 L 250.00,418.62 L 250.00,417.50 L 252.50,419.49 L 252.50,417.50 L 255.00,420.00 L 252.54,420.00 L 262.50,417.50 L 262.50,419.62 L 260.00,417.50 L 265.00,417.50 L 265.00,418.83 L 265.00,417.50 L 267.50,420.00 L 265.56,420.00 L 535.00,417.50 L 535.00,418.83 L 532.50,417.50 L 535.00,417.50 L 537.50,419.62 L 537.50,417.50 L 540.00,420.00 L 537.90,420.00 L 547.50,417.50 L 547.50,419.49 L 545.00,417.50 L 550.00,417.50 L 550.00,418.62 L 552.31,417.50 L 605.00,418.69 L 605.00,417.50 L 607.50,420.00 L 606.28,420.00 L 647.50,417.50 L 647.50,418.62 L 645.00,417.50 L 648.44,417.50 L 155.00,421.14 L 155.00,420.00 L 157.50,422.50 L 155.85,422.50 L 192.50,420.00 L 192.50,421.20 L 190.00,420.00 L 193.78,420.00 L 255.00,420.01 L 255.00,420.00 L 257.50,420.19 L 260.00,420.00 L 260.00,420.07 L 260.40,420.00 L 267.50,420.31 L 267.50,420.00 L 270.00,421.78 L 270.00,420.00 L 272.50,422.50 L 270.95,422.50 L 530.00,420.00 L 530.00,421.78 L 527.50,420.00 L 532.50,420.00 L 532.50,420.31 L 533.06,420.00 L 540.00,420.07 L 540.00,420.00 L 542.50,420.19 L 545.00,420.00 L 545.00,420.01 L 545.04,420.00 L 607.50,421.20 L 607.50,420.00 L 610.00,422.50 L 608.41,422.50 L 645.00,420.00 L 645.00,421.14 L 642.50,420.00 L 646.21,420.00 L 157.50,423.13 L 157.50,422.50 L 160.00,424.71 L 160.00,422.50 L 162.50,425.00 L 161.93,425.00 L 187.50,422.50 L 187.50,424.74 L 185.00,422.50 L 190.00,422.50 L 190.00,423.18 L 190.91,422.50 L 272.50,422.91 L 272.50,422.50 L 275.00,423.71 L 275.00,422.50 L 277.50,424.23 L 277.50,422.50 L 280.00,424.49 L 281.25,422.50 L 282.50,424.49 L 285.00,422.50 L 285.00,425.00 L 283.96,425.00 L 515.00,422.50 L 517.50,424.49 L 515.00,422.50 L 518.75,422.50 L 520.00,424.49 L 522.50,422.50 L 522.50,424.23 L 525.00,422.50 L 525.00,423.71 L 527.50,422.50 L 527.50,422.91 L 528.45,422.50 L 610.00,423.18 L 610.00,422.50 L 612.50,424.74 L 612.50,422.50 L 615.00,425.00 L 614.50,425.00 L 640.00,422.50 L 640.00,424.71 L 637.50,422.50 L 642.50,422.50 L 642.50,423.13 L 643.35,422.50 L 162.50,425.94 L 162.50,425.00 L 165.00,426.89 L 165.00,425.00 L 167.50,427.50 L 165.32,427.50 L 182.50,425.00 L 182.50,426.91 L 180.00,425.00 L 185.00,425.00 L 185.00,425.97 L 187.00,425.00 L 285.00,427.50 L 282.52,427.50 L 516.46,425.00 L 515.00,425.00 L 615.00,425.97 L 615.00,425.00 L 617.50,426.91 L 617.50,425.00 L 620.00,427.50 L 617.88,427.50 L 635.00,425.00 L 635.00,426.89 L 632.50,425.00 L 637.50,425.00 L 637.50,425.94 L 639.43,425.00 L 167.50,427.59 L 167.50,427.50 L 170.00,428.04 L 170.00,427.50 L 172.50,428.26 L 172.50,427.50 L 175.00,428.27 L 177.50,427.50 L 177.50,428.05 L 180.00,427.50 L 180.00,427.60 L 180.38,427.50 L 285.00,427.59 L 285.00,427.50 L 287.50,430.00 L 286.90,430.00 L 515.00,427.50 L 515.00,427.59 L 512.50,427.50 L 515.02,427.50 L 620.00,427.60 L 620.00,427.50 L 622.50,428.05 L 622.50,427.50 L 625.00,428.27 L 627.50,427.50 L 627.50,428.26 L 630.00,427.50 L 630.00,428.04 L 632.50,427.50 L 632.50,427.59 L 632.82,427.50 L 287.50,432.50 L 286.21,432.50 L 514.40,430.00 L 512.50,430.00 L 287.50,435.00 L 285.47,435.00 L 513.71,432.50 L 512.50,432.50 L 287.50,436.45 L 287.50,435.00 L 290.00,437.50 L 289.66,437.50 L 512.50,435.00 L 512.50,436.45 L 510.00,435.00 L 512.97,435.00 L 290.00,440.00 L 288.79,440.00 L 512.16,437.50 L 510.00,437.50 L 290.00,442.50 L 287.86,442.50 L 511.29,440.00 L 510.00,440.00 L 290.00,443.42 L 290.00,442.50 L 292.50,445.00 L 291.87,445.00 L 510.00,442.50 L 510.00,443.42 L 507.50,442.50 L 510.36,442.50 L 292.50,447.50 L 290.81,447.50 L 509.37,445.00 L 507.50,445.00 L 292.50,449.29 L 292.50,447.50 L 295.00,450.00 L 294.67,450.00 L 507.50,447.50 L 507.50,449.29 L 505.00,447.50 L 508.31,447.50 L 295.00,452.50 L 293.47,452.50 L 507.17,450.00 L 505.00,450.00 L 295.00,454.41 L 295.00,452.50 L 297.50,455.00 L 297.20,455.00 L 505.00,452.50 L 505.00,454.41 L 502.50,452.50 L 505.97,452.50 L 297.50,457.50 L 295.84,457.50 L 504.70,455.00 L 502.50,455.00 L 297.50,458.98 L 297.50,457.50 L 300.00,460.00 L 299.41,460.00 L 502.50,457.50 L 502.50,458.98 L 500.00,457.50 L 503.34,457.50 L 300.00,462.50 L 297.96,462.50 L 501.91,460.00 L 500.00,460.00 L 295.34,465.00 L 300.00,462.50 L 300.00,465.00 L 297.50,462.82 L 500.46,462.50 L 500.00,465.00 L 500.00,465.00 L 502.50,462.82 L 292.67,467.50 L 297.50,465.00 L 297.50,467.50 L 295.00,465.20 L 502.84,465.00 L 502.50,467.50 L 502.50,467.50 L 505.00,465.20 L 295.00,467.50 L 294.49,470.00 L 505.17,467.50 L 505.00,470.00 L 290.92,472.50 L 295.00,470.00 L 295.00,472.50 L 292.50,471.65 L 506.99,470.00 L 505.00,472.50 L 505.00,472.50 L 507.50,471.65 L 292.50,472.50 L 292.03,475.00 L 508.42,472.50 L 507.50,475.00 L 287.86,477.50 L 292.50,475.00 L 292.50,477.50 L 290.00,476.12 L 509.53,475.00 L 507.50,477.50 L 507.50,477.50 L 510.00,476.12 L 290.00,477.50 L 288.43,480.00 L 510.36,477.50 L 510.00,480.00 L 290.00,480.00 L 288.76,482.50 L 510.93,480.00 L 510.00,482.50 L 290.00,482.50 L 288.87,485.00 L 511.26,482.50 L 510.00,485.00 L 290.00,487.50 L 288.74,487.50 L 511.37,485.00 L 510.00,485.00 L 290.00,490.00 L 288.88,490.00 L 511.24,487.50 L 510.00,487.50 L 290.00,492.50 L 289.53,492.50 L 511.38,490.00 L 510.00,490.00 L 285.41,495.00 L 290.00,492.50 L 290.00,495.00 L 287.50,493.80 L 512.03,492.50 L 510.00,495.00 L 510.00,495.00 L 512.50,493.80 L 287.50,495.00 L 285.64,497.50 L 512.91,495.00 L 512.50,497.50 L 287.50,500.00 L 285.31,500.00 L 513.14,497.50 L 512.50,497.50 L 287.50,500.88 L 287.50,500.00 L 290.00,502.50 L 289.28,502.50 L 337.50,500.00 L 337.50,501.86 L 335.00,500.00 L 337.50,500.00 L 340.00,501.91 L 340.00,500.00 L 342.50,502.50 L 341.48,502.50 L 460.00,500.00 L 460.00,501.91 L 457.50,500.00 L 462.50,500.00 L 462.50,501.86 L 462.50,500.00 L 465.00,502.50 L 464.48,502.50 L 512.50,500.00 L 512.50,500.88 L 510.00,500.00 L 512.81,500.00 L 290.00,504.93 L 290.00,502.50 L 292.50,505.00 L 292.43,505.00 L 335.00,502.50 L 335.00,504.61 L 332.50,502.50 L 336.98,502.50 L 342.50,503.34 L 342.50,502.50 L 345.00,504.70 L 345.00,502.50 L 347.50,505.00 L 346.91,505.00 L 455.00,502.50 L 455.00,504.70 L 452.50,502.50 L 457.50,502.50 L 457.50,503.34 L 458.98,502.50 L 465.00,504.61 L 465.00,502.50 L 467.50,505.00 L 467.09,505.00 L 510.00,502.50 L 510.00,504.93 L 507.50,502.50 L 511.78,502.50 L 292.50,506.74 L 292.50,505.00 L 295.00,507.50 L 293.22,507.50 L 332.50,505.00 L 332.50,506.74 L 330.00,505.00 L 334.59,505.00 L 347.50,505.97 L 347.50,505.00 L 350.00,507.17 L 350.00,505.00 L 352.50,507.50 L 351.79,507.50 L 450.00,505.00 L 450.00,507.17 L 447.50,505.00 L 452.50,505.00 L 452.50,505.97 L 454.41,505.00 L 467.50,506.74 L 467.50,505.00 L 470.00,507.50 L 468.92,507.50 L 507.50,505.00 L 507.50,506.74 L 505.00,505.00 L 509.93,505.00 L 295.00,507.75 L 295.00,507.50 L 297.50,508.05 L 300.00,507.50 L 300.00,507.80 L 300.00,507.50 L 302.50,508.67 L 302.50,507.50 L 305.00,509.94 L 305.00,507.50 L 307.50,510.00 L 307.34,510.00 L 327.50,507.50 L 327.50,509.73 L 325.00,507.50 L 330.00,507.50 L 330.00,508.41 L 331.42,507.50 L 352.50,508.31 L 352.50,507.50 L 355.00,509.37 L 355.00,507.50 L 357.50,510.00 L 355.92,510.00 L 445.00,507.50 L 445.00,509.37 L 442.50,507.50 L 447.50,507.50 L 447.50,508.31 L 449.29,507.50 L 470.00,508.41 L 470.00,507.50 L 472.50,509.73 L 472.50,507.50 L 475.00,510.00 L 474.37,510.00 L 495.00,507.50 L 495.00,509.94 L 492.50,507.50 L 497.50,507.50 L 497.50,508.67 L 500.00,507.50 L 500.00,507.80 L 500.00,507.50 L 502.50,508.05 L 505.00,507.50 L 505.00,507.75 L 505.72,507.50 L 307.50,510.89 L 307.50,510.00 L 310.00,511.58 L 310.00,510.00 L 312.50,512.02 L 312.50,510.00 L 315.00,512.23 L 317.50,510.00 L 317.50,512.21 L 320.00,510.00 L 320.00,511.96 L 322.50,510.00 L 322.50,511.47 L 325.00,510.00 L 325.00,510.74 L 326.87,510.00 L 357.50,510.36 L 357.50,510.00 L 360.00,511.29 L 360.00,510.00 L 362.50,512.16 L 362.50,510.00 L 365.00,512.50 L 363.95,512.50 L 437.50,510.00 L 437.50,512.16 L 435.00,510.00 L 440.00,510.00 L 440.00,511.29 L 442.50,510.00 L 442.50,510.36 L 443.42,510.00 L 475.00,510.74 L 475.00,510.00 L 477.50,511.47 L 477.50,510.00 L 480.00,511.96 L 480.00,510.00 L 482.50,512.21 L 482.50,510.00 L 485.00,512.23 L 487.50,510.00 L 487.50,512.02 L 490.00,510.00 L 490.00,511.58 L 492.50,510.00 L 492.50,510.89 L 494.84,510.00 L 365.00,512.97 L 365.00,512.50 L 367.50,513.71 L 367.50,512.50 L 370.00,514.54 L 370.00,512.50 L 372.50,515.00 L 372.08,515.00 L 430.00,512.50 L 430.00,514.54 L 427.50,512.50 L 432.50,512.50 L 432.50,513.71 L 435.00,512.50 L 435.00,512.97 L 436.45,512.50 L 372.50,515.00 L 372.40,517.50 L 429.58,515.00 L 427.50,517.50 L 372.50,517.50 L 372.50,520.00 L 429.90,517.50 L 427.50,520.00 L 427.50,520.00 L 430.00,517.50 L 372.50,522.50 L 372.40,522.50 L 430.00,520.00 L 430.00,520.00 L 427.50,520.00 L 430.00,520.00 L 372.50,525.00 L 372.08,525.00 L 429.90,522.50 L 427.50,522.50 L 372.50,527.50 L 371.55,527.50 L 429.58,525.00 L 427.50,525.00 L 372.50,530.00 L 370.78,530.00 L 429.05,527.50 L 427.50,527.50 L 372.50,531.95 L 372.50,530.00 L 375.00,532.50 L 374.77,532.50 L 427.50,530.00 L 427.50,531.95 L 425.00,530.00 L 428.28,530.00 L 234.58,535.00 L 237.50,535.00 L 235.00,532.91 L 237.50,535.00 L 237.50,533.13 L 240.00,535.00 L 240.00,533.07 L 242.50,532.75 L 375.00,535.00 L 373.47,535.00 L 427.27,532.50 L 425.00,532.50 L 556.03,535.00 L 560.00,535.00 L 557.50,532.75 L 562.50,535.00 L 560.00,533.07 L 562.50,535.00 L 562.50,533.13 L 565.00,532.91 L 225.79,537.50 L 230.00,537.50 L 227.50,535.46 L 232.50,537.50 L 230.00,536.59 L 235.00,535.00 L 235.00,537.50 L 232.50,537.41 L 243.53,535.00 L 242.50,537.50 L 242.50,537.50 L 245.00,537.50 L 245.00,537.12 L 247.50,536.18 L 375.00,536.55 L 375.00,535.00 L 377.50,537.50 L 376.86,537.50 L 425.00,535.00 L 425.00,536.55 L 422.50,535.00 L 425.97,535.00 L 552.33,537.50 L 555.00,537.50 L 552.50,536.18 L 557.50,535.00 L 557.50,537.50 L 555.00,537.12 L 567.08,535.00 L 565.00,537.50 L 565.00,537.50 L 567.50,537.50 L 567.50,537.41 L 570.00,537.50 L 570.00,536.59 L 572.50,535.46 L 224.29,540.00 L 227.50,537.50 L 227.50,540.00 L 225.00,538.91 L 249.83,537.50 L 247.50,540.00 L 247.50,540.00 L 250.00,540.00 L 250.00,539.91 L 252.50,538.16 L 377.50,539.84 L 377.50,537.50 L 380.00,540.00 L 379.86,540.00 L 422.50,537.50 L 422.50,539.84 L 420.00,537.50 L 424.36,537.50 L 545.79,540.00 L 550.00,540.00 L 547.50,538.16 L 552.50,537.50 L 552.50,540.00 L 550.00,539.91 L 573.29,537.50 L 572.50,540.00 L 572.50,540.00 L 575.00,538.91 L 221.75,542.50 L 225.00,540.00 L 225.00,542.50 L 222.50,541.85 L 253.29,540.00 L 252.50,542.50 L 252.50,542.50 L 255.00,540.85 L 380.00,542.36 L 380.00,540.00 L 382.50,542.50 L 382.34,542.50 L 420.00,540.00 L 420.00,542.36 L 417.50,540.00 L 422.36,540.00 L 543.26,542.50 L 547.50,540.00 L 547.50,542.50 L 545.00,540.85 L 576.79,540.00 L 575.00,542.50 L 575.00,542.50 L 577.50,541.85 L 218.59,545.00 L 222.50,542.50 L 222.50,545.00 L 220.00,544.05 L 255.76,542.50 L 255.00,545.00 L 255.00,545.00 L 257.50,542.67 L 382.50,544.36 L 382.50,542.50 L 385.00,545.00 L 384.05,545.00 L 417.50,542.50 L 417.50,544.36 L 415.00,542.50 L 419.84,542.50 L 540.11,545.00 L 545.00,542.50 L 545.00,545.00 L 542.50,542.67 L 579.25,542.50 L 577.50,545.00 L 577.50,545.00 L 580.00,544.05 L 220.00,545.00 L 219.98,547.50 L 257.61,545.00 L 257.50,547.50 L 385.00,545.97 L 385.00,545.00 L 387.50,547.27 L 387.50,545.00 L 390.00,547.50 L 389.45,547.50 L 412.50,545.00 L 412.50,547.27 L 410.00,545.00 L 415.00,545.00 L 415.00,545.97 L 416.55,545.00 L 542.50,545.00 L 541.47,547.50 L 581.09,545.00 L 580.00,547.50 L 215.97,550.00 L 220.00,547.50 L 220.00,550.00 L 217.50,549.96 L 258.97,547.50 L 257.50,550.00 L 390.00,548.28 L 390.00,547.50 L 392.50,549.05 L 392.50,547.50 L 395.00,549.58 L 395.00,547.50 L 397.50,549.90 L 397.50,547.50 L 400.00,550.00 L 402.50,547.50 L 402.50,549.90 L 405.00,547.50 L 405.00,549.58 L 407.50,547.50 L 407.50,549.05 L 410.00,547.50 L 410.00,548.28 L 411.95,547.50 L 542.50,547.50 L 542.49,550.00 L 582.48,547.50 L 580.00,550.00 L 580.00,550.00 L 582.50,549.96 L 217.50,550.00 L 216.66,552.50 L 259.99,550.00 L 257.50,552.50 L 257.50,552.50 L 260.00,552.48 L 538.16,552.50 L 542.50,550.00 L 542.50,552.50 L 540.00,552.48 L 583.47,550.00 L 582.50,552.50 L 217.50,552.50 L 217.05,555.00 L 260.66,552.50 L 260.00,555.00 L 540.00,552.50 L 538.55,555.00 L 584.16,552.50 L 582.50,555.00 L 217.50,555.00 L 217.17,557.50 L 261.05,555.00 L 260.00,557.50 L 540.00,555.00 L 538.66,557.50 L 584.55,555.00 L 582.50,557.50 L 217.50,560.00 L 217.00,560.00 L 261.16,557.50 L 260.00,557.50 L 540.00,560.00 L 538.50,560.00 L 584.67,557.50 L 582.50,557.50 L 217.50,562.50 L 216.60,562.50 L 261.00,560.00 L 260.00,560.00 L 540.00,562.50 L 538.07,562.50 L 584.50,560.00 L 582.50,560.00 L 217.50,562.50 L 217.20,565.00 L 260.00,562.50 L 260.00,564.47 L 257.50,562.50 L 260.57,562.50 L 540.00,564.47 L 540.00,562.50 L 542.50,565.00 L 542.34,565.00 L 584.10,562.50 L 582.50,565.00 L 212.71,567.50 L 217.50,565.00 L 217.50,567.50 L 215.00,566.08 L 259.84,565.00 L 257.50,565.00 L 542.50,567.50 L 541.25,567.50 L 584.70,565.00 L 582.50,567.50 L 582.50,567.50 L 585.00,566.08 L 215.00,567.50 L 212.84,570.00 L 257.50,567.50 L 257.50,569.71 L 255.00,567.50 L 258.75,567.50 L 542.50,569.71 L 542.50,567.50 L 545.00,570.00 L 544.82,570.00 L 585.21,567.50 L 585.00,570.00 L 215.00,572.50 L 212.63,572.50 L 257.32,570.00 L 255.00,570.00 L 545.00,572.50 L 542.88,572.50 L 585.34,570.00 L 585.00,570.00 L 215.00,573.06 L 215.00,572.50 L 217.50,575.00 L 217.01,575.00 L 255.00,572.50 L 255.00,572.92 L 252.50,572.50 L 255.38,572.50 L 545.00,572.92 L 545.00,572.50 L 547.50,575.00 L 545.28,575.00 L 585.00,572.50 L 585.00,573.06 L 582.50,572.50 L 585.13,572.50 L 217.50,577.50 L 215.98,577.50 L 250.00,575.00 L 250.00,576.95 L 247.50,575.00 L 252.50,575.00 L 252.50,575.23 L 252.78,575.00 L 547.50,575.23 L 547.50,575.00 L 550.00,576.95 L 550.00,575.00 L 552.50,577.50 L 551.50,577.50 L 584.51,575.00 L 582.50,575.00 L 217.50,579.20 L 217.50,577.50 L 220.00,580.00 L 219.46,580.00 L 247.50,577.50 L 247.50,578.59 L 245.00,577.50 L 249.00,577.50 L 552.50,578.59 L 552.50,577.50 L 555.00,580.00 L 553.57,580.00 L 582.50,577.50 L 582.50,579.20 L 580.00,577.50 L 583.48,577.50 L 220.00,582.25 L 220.00,580.00 L 222.50,582.50 L 222.24,582.50 L 245.00,580.00 L 245.00,581.31 L 242.50,580.00 L 246.07,580.00 L 555.00,581.31 L 555.00,580.00 L 557.50,582.50 L 556.32,582.50 L 580.00,580.00 L 580.00,582.25 L 577.50,580.00 L 581.96,580.00 L 222.50,584.23 L 222.50,582.50 L 225.00,585.00 L 223.69,585.00 L 242.50,582.50 L 242.50,583.61 L 240.00,582.50 L 243.82,582.50 L 557.50,583.61 L 557.50,582.50 L 560.00,585.00 L 557.86,585.00 L 577.50,582.50 L 577.50,584.23 L 575.00,582.50 L 579.74,582.50 L 225.00,585.60 L 225.00,585.00 L 227.50,586.49 L 227.50,585.00 L 230.00,586.98 L 230.00,585.00 L 232.50,587.10 L 235.00,585.00 L 235.00,586.85 L 237.50,585.00 L 237.50,586.22 L 240.00,585.00 L 240.00,585.20 L 240.36,585.00 L 560.00,585.20 L 560.00,585.00 L 562.50,586.22 L 562.50,585.00 L 565.00,586.85 L 565.00,585.00 L 567.50,587.10 L 570.00,585.00 L 570.00,586.98 L 572.50,585.00 L 572.50,586.49 L 575.00,585.00 L 575.00,585.60 L 576.19,585.00 L 389.45,612.50 L 392.50,612.50 L 390.00,610.78 L 395.00,612.50 L 392.50,611.55 L 397.50,612.50 L 395.00,612.08 L 400.00,612.50 L 397.50,612.40 L 400.00,612.50 L 400.00,612.50 L 402.50,612.50 L 402.50,612.40 L 405.00,612.50 L 405.00,612.08 L 407.50,612.50 L 407.50,611.55 L 410.00,610.78 L 384.05,615.00 L 387.50,615.00 L 385.00,613.47 L 390.00,612.50 L 390.00,615.00 L 387.50,614.77 L 411.95,612.50 L 410.00,615.00 L 410.00,615.00 L 412.50,615.00 L 412.50,614.77 L 415.00,613.47 L 382.34,617.50 L 385.00,615.00 L 385.00,617.50 L 382.50,616.86 L 416.55,615.00 L 415.00,617.50 L 415.00,617.50 L 417.50,616.86 L 379.86,620.00 L 382.50,617.50 L 382.50,620.00 L 380.00,619.86 L 419.84,617.50 L 417.50,620.00 L 417.50,620.00 L 420.00,619.86 L 376.86,622.50 L 380.00,620.00 L 380.00,622.50 L 377.50,622.34 L 422.36,620.00 L 420.00,622.50 L 420.00,622.50 L 422.50,622.34 L 373.47,625.00 L 377.50,622.50 L 377.50,625.00 L 375.00,624.05 L 424.36,622.50 L 422.50,625.00 L 422.50,625.00 L 425.00,624.05 L 375.00,625.00 L 374.77,627.50 L 425.97,625.00 L 425.00,627.50 L 370.78,630.00 L 375.00,627.50 L 375.00,630.00 L 372.50,629.45 L 427.27,627.50 L 425.00,630.00 L 425.00,630.00 L 427.50,629.45 L 372.50,630.00 L 371.55,632.50 L 428.28,630.00 L 427.50,632.50 L 372.50,632.50 L 372.08,635.00 L 429.05,632.50 L 427.50,635.00 L 372.50,635.00 L 372.40,637.50 L 429.58,635.00 L 427.50,637.50 L 372.50,637.50 L 372.50,640.00 L 429.90,637.50 L 427.50,640.00 L 427.50,640.00 L 430.00,637.50 L 372.50,642.50 L 372.40,642.50 L 430.00,640.00 L 430.00,640.00 L 427.50,640.00 L 430.00,640.00 L 372.50,645.00 L 372.08,645.00 L 429.90,642.50 L 427.50,642.50 L 372.50,647.50 L 371.55,647.50 L 429.58,645.00 L 427.50,645.00 L 372.50,650.00 L 370.78,650.00 L 429.05,647.50 L 427.50,647.50 L 372.50,651.95 L 372.50,650.00 L 375.00,652.50 L 374.77,652.50 L 427.50,650.00 L 427.50,651.95 L 425.00,650.00 L 428.28,650.00 L 375.00,655.00 L 373.47,655.00 L 427.27,652.50 L 425.00,652.50 L 375.00,656.55 L 375.00,655.00 L 377.50,657.50 L 376.86,657.50 L 425.00,655.00 L 425.00,656.55 L 422.50,655.00 L 425.97,655.00 L 377.50,659.84 L 377.50,657.50 L 380.00,660.00 L 379.86,660.00 L 422.50,657.50 L 422.50,659.84 L 420.00,657.50 L 424.36,657.50 L 380.00,662.36 L 380.00,660.00 L 382.50,662.50 L 382.34,662.50 L 420.00,660.00 L 420.00,662.36 L 417.50,660.00 L 422.36,660.00 L 382.50,664.36 L 382.50,662.50 L 385.00,665.00 L 384.05,665.00 L 417.50,662.50 L 417.50,664.36 L 415.00,662.50 L 419.84,662.50 L 385.00,665.97 L 385.00,665.00 L 387.50,667.27 L 387.50,665.00 L 390.00,667.50 L 389.45,667.50 L 412.50,665.00 L 412.50,667.27 L 410.00,665.00 L 415.00,665.00 L 415.00,665.97 L 416.55,665.00 L 390.00,668.28 L 390.00,667.50 L 392.50,669.05 L 392.50,667.50 L 395.00,669.58 L 395.00,667.50 L 397.50,669.90 L 397.50,667.50 L 400.00,670.00 L 402.50,667.50 L 402.50,669.90 L 405.00,667.50 L 405.00,669.58 L 407.50,667.50 L 407.50,669.05 L 410.00,667.50 L 410.00,668.28 L 411.95,667.50 Z" fill="none" stroke="#00ffcc" stroke-width="12" filter="drop-shadow(0px 0px 8px #00ffcc)"/>
  <path id="echo" d="M 387.50,130.00 L 389.45,132.50 L 392.50,132.50 L 390.00,130.78 L 395.00,132.50 L 392.50,131.55 L 397.50,132.50 L 395.00,132.08 L 400.00,132.50 L 397.50,132.40 L 400.00,132.50 L 400.00,132.50 L 402.50,132.50 L 402.50,132.40 L 405.00,132.50 L 405.00,132.08 L 407.50,132.50 L 407.50,131.55 L 410.00,130.78 L 384.05,135.00 L 387.50,135.00 L 385.00,133.47 L 390.00,132.50 L 390.00,135.00 L 387.50,134.77 L 411.95,132.50 L 410.00,135.00 L 410.00,135.00 L 412.50,135.00 L 412.50,134.77 L 415.00,133.47 L 382.34,137.50 L 385.00,135.00 L 385.00,137.50 L 382.50,136.86 L 416.55,135.00 L 415.00,137.50 L 415.00,137.50 L 417.50,136.86 L 379.86,140.00 L 382.50,137.50 L 382.50,140.00 L 380.00,139.86 L 419.84,137.50 L 417.50,140.00 L 417.50,140.00 L 420.00,139.86 L 376.86,142.50 L 380.00,140.00 L 380.00,142.50 L 377.50,142.34 L 422.36,140.00 L 420.00,142.50 L 420.00,142.50 L 422.50,142.34 L 373.47,145.00 L 377.50,142.50 L 377.50,145.00 L 375.00,144.05 L 424.36,142.50 L 422.50,145.00 L 422.50,145.00 L 425.00,144.05 L 375.00,145.00 L 374.77,147.50 L 425.97,145.00 L 425.00,147.50 L 370.78,150.00 L 375.00,147.50 L 375.00,150.00 L 372.50,149.45 L 427.27,147.50 L 425.00,150.00 L 425.00,150.00 L 427.50,149.45 L 372.50,150.00 L 371.55,152.50 L 428.28,150.00 L 427.50,152.50 L 372.50,152.50 L 372.08,155.00 L 429.05,152.50 L 427.50,155.00 L 372.50,155.00 L 372.40,157.50 L 429.58,155.00 L 427.50,157.50 L 367.50,160.00 L 372.50,157.50 L 372.50,160.00 L 370.00,157.50 L 429.90,157.50 L 427.50,160.00 L 370.00,160.00 L 370.00,160.00 L 372.50,162.50 L 372.40,162.50 L 430.00,160.00 L 427.50,160.00 L 372.50,165.00 L 372.08,165.00 L 429.90,162.50 L 427.50,162.50 L 372.50,167.50 L 371.55,167.50 L 429.58,165.00 L 427.50,165.00 L 372.50,170.00 L 370.78,170.00 L 429.05,167.50 L 427.50,167.50 L 372.50,171.95 L 372.50,170.00 L 375.00,172.50 L 374.77,172.50 L 427.50,170.00 L 427.50,171.95 L 425.00,170.00 L 428.28,170.00 L 375.00,175.00 L 373.47,175.00 L 427.27,172.50 L 425.00,172.50 L 375.00,176.55 L 375.00,175.00 L 377.50,177.50 L 376.86,177.50 L 425.00,175.00 L 425.00,176.55 L 422.50,175.00 L 425.97,175.00 L 377.50,179.84 L 377.50,177.50 L 380.00,180.00 L 379.86,180.00 L 422.50,177.50 L 422.50,179.84 L 420.00,177.50 L 424.36,177.50 L 380.00,182.36 L 380.00,180.00 L 382.50,182.50 L 382.34,182.50 L 420.00,180.00 L 420.00,182.36 L 417.50,180.00 L 422.36,180.00 L 382.50,184.36 L 382.50,182.50 L 385.00,185.00 L 384.05,185.00 L 417.50,182.50 L 417.50,184.36 L 415.00,182.50 L 419.84,182.50 L 385.00,185.97 L 385.00,185.00 L 387.50,187.27 L 387.50,185.00 L 390.00,187.50 L 389.45,187.50 L 412.50,185.00 L 412.50,187.27 L 410.00,185.00 L 415.00,185.00 L 415.00,185.97 L 416.55,185.00 L 390.00,188.28 L 390.00,187.50 L 392.50,189.05 L 392.50,187.50 L 395.00,189.58 L 395.00,187.50 L 397.50,189.90 L 397.50,187.50 L 400.00,190.00 L 402.50,187.50 L 402.50,189.90 L 405.00,187.50 L 405.00,189.58 L 407.50,187.50 L 407.50,189.05 L 410.00,187.50 L 410.00,188.28 L 411.95,187.50 L 223.69,215.00 L 227.50,215.00 L 225.00,213.10 L 230.00,215.00 L 227.50,213.98 L 232.50,215.00 L 230.00,214.48 L 232.50,215.00 L 232.50,214.60 L 235.00,215.00 L 235.00,214.35 L 237.50,215.00 L 237.50,213.72 L 240.00,212.70 L 557.86,215.00 L 562.50,215.00 L 560.00,212.70 L 565.00,215.00 L 562.50,213.72 L 567.50,215.00 L 565.00,214.35 L 567.50,215.00 L 567.50,214.60 L 570.00,215.00 L 570.00,214.48 L 572.50,215.00 L 572.50,213.99 L 575.00,213.10 L 222.24,217.50 L 225.00,215.00 L 225.00,217.50 L 222.50,216.73 L 240.36,215.00 L 240.00,217.50 L 240.00,217.50 L 242.50,216.11 L 556.33,217.50 L 560.00,215.00 L 560.00,217.50 L 557.50,216.11 L 576.19,215.00 L 575.00,217.50 L 575.00,217.50 L 577.50,216.73 L 219.46,220.00 L 222.50,217.50 L 222.50,220.00 L 220.00,219.75 L 243.82,217.50 L 242.50,220.00 L 242.50,220.00 L 245.00,218.81 L 553.57,220.00 L 557.50,217.50 L 557.50,220.00 L 555.00,218.81 L 579.74,217.50 L 577.50,220.00 L 577.50,220.00 L 580.00,219.75 L 215.98,222.50 L 220.00,220.00 L 220.00,222.50 L 217.50,221.70 L 246.07,220.00 L 245.00,222.50 L 245.00,222.50 L 247.50,221.09 L 551.50,222.50 L 555.00,220.00 L 555.00,222.50 L 552.50,221.09 L 581.96,220.00 L 580.00,222.50 L 580.00,222.50 L 582.50,221.70 L 217.50,222.50 L 217.01,225.00 L 249.00,222.50 L 247.50,225.00 L 247.50,225.00 L 250.00,225.00 L 250.00,224.45 L 252.50,222.73 L 545.28,225.00 L 550.00,225.00 L 547.50,222.73 L 552.50,222.50 L 552.50,225.00 L 550.00,224.45 L 583.48,222.50 L 582.50,225.00 L 212.63,227.50 L 217.50,225.00 L 217.50,227.50 L 215.00,225.56 L 252.78,225.00 L 252.50,227.50 L 252.50,227.50 L 255.00,225.42 L 542.88,227.50 L 547.50,225.00 L 547.50,227.50 L 545.00,225.42 L 584.51,225.00 L 582.50,227.50 L 582.50,227.50 L 585.00,225.56 L 215.00,227.50 L 212.84,230.00 L 255.38,227.50 L 255.00,230.00 L 545.00,227.50 L 544.82,230.00 L 585.13,227.50 L 585.00,230.00 L 215.00,232.50 L 212.71,232.50 L 257.32,230.00 L 255.00,232.50 L 255.00,232.50 L 257.50,232.21 L 541.25,232.50 L 545.00,230.00 L 545.00,232.50 L 542.50,232.21 L 585.34,230.00 L 585.00,230.00 L 215.00,233.58 L 215.00,232.50 L 217.50,235.00 L 217.20,235.00 L 258.75,232.50 L 257.50,235.00 L 542.50,232.50 L 542.34,235.00 L 585.00,232.50 L 585.00,233.58 L 582.50,232.50 L 585.21,232.50 L 217.50,237.50 L 216.60,237.50 L 259.84,235.00 L 257.50,237.50 L 257.50,237.50 L 260.00,236.97 L 538.07,237.50 L 542.50,235.00 L 542.50,237.50 L 540.00,236.97 L 584.70,235.00 L 582.50,235.00 L 217.50,237.50 L 217.00,240.00 L 260.57,237.50 L 260.00,240.00 L 540.00,237.50 L 538.50,240.00 L 584.10,237.50 L 582.50,240.00 L 217.50,240.00 L 217.17,242.50 L 261.00,240.00 L 260.00,242.50 L 540.00,240.00 L 538.66,242.50 L 584.50,240.00 L 582.50,242.50 L 217.50,245.00 L 217.05,245.00 L 261.16,242.50 L 260.00,242.50 L 540.00,245.00 L 538.55,245.00 L 584.67,242.50 L 582.50,242.50 L 217.50,247.50 L 216.66,247.50 L 261.05,245.00 L 260.00,245.00 L 540.00,247.50 L 538.16,247.50 L 584.55,245.00 L 582.50,245.00 L 217.50,250.00 L 215.97,250.00 L 260.00,247.50 L 260.00,249.98 L 257.50,247.50 L 260.66,247.50 L 540.00,249.98 L 540.00,247.50 L 542.50,250.00 L 542.49,250.00 L 584.16,247.50 L 582.50,247.50 L 217.50,252.46 L 217.50,250.00 L 220.00,252.50 L 219.98,252.50 L 259.99,250.00 L 257.50,250.00 L 389.45,252.50 L 392.50,252.50 L 390.00,250.78 L 395.00,252.50 L 392.50,251.55 L 397.50,252.50 L 395.00,252.08 L 400.00,252.50 L 397.50,252.40 L 400.00,252.50 L 400.00,252.50 L 402.50,252.50 L 402.50,252.40 L 405.00,252.50 L 405.00,252.08 L 407.50,252.50 L 407.50,251.55 L 410.00,250.78 L 542.50,252.50 L 541.47,252.50 L 582.50,250.00 L 582.50,252.46 L 580.00,250.00 L 583.47,250.00 L 220.00,255.00 L 218.59,255.00 L 258.97,252.50 L 257.50,252.50 L 384.05,255.00 L 387.50,255.00 L 385.00,253.47 L 390.00,252.50 L 390.00,255.00 L 387.50,254.77 L 411.95,252.50 L 410.00,255.00 L 410.00,255.00 L 412.50,255.00 L 412.50,254.77 L 415.00,253.47 L 542.50,255.00 L 540.11,255.00 L 582.48,252.50 L 580.00,252.50 L 220.00,256.55 L 220.00,255.00 L 222.50,257.50 L 221.75,257.50 L 257.50,255.00 L 257.50,255.17 L 255.00,255.00 L 257.61,255.00 L 382.34,257.50 L 385.00,255.00 L 385.00,257.50 L 382.50,256.86 L 416.55,255.00 L 415.00,257.50 L 415.00,257.50 L 417.50,256.86 L 542.50,255.17 L 542.50,255.00 L 545.00,257.50 L 543.26,257.50 L 580.00,255.00 L 580.00,256.55 L 577.50,255.00 L 581.09,255.00 L 222.50,259.35 L 222.50,257.50 L 225.00,260.00 L 224.29,260.00 L 255.00,257.50 L 255.00,258.35 L 252.50,257.50 L 255.76,257.50 L 379.86,260.00 L 382.50,257.50 L 382.50,260.00 L 380.00,259.86 L 419.84,257.50 L 417.50,260.00 L 417.50,260.00 L 420.00,259.86 L 545.00,258.35 L 545.00,257.50 L 547.50,260.00 L 545.79,260.00 L 577.50,257.50 L 577.50,259.35 L 575.00,257.50 L 579.25,257.50 L 225.00,261.41 L 225.00,260.00 L 227.50,262.50 L 225.79,262.50 L 250.00,260.00 L 250.00,262.41 L 247.50,260.00 L 252.50,260.00 L 252.50,260.66 L 253.29,260.00 L 376.86,262.50 L 380.00,260.00 L 380.00,262.50 L 377.50,262.34 L 422.36,260.00 L 420.00,262.50 L 420.00,262.50 L 422.50,262.34 L 547.50,260.66 L 547.50,260.00 L 550.00,262.41 L 550.00,260.00 L 552.50,262.50 L 552.33,262.50 L 575.00,260.00 L 575.00,261.40 L 572.50,260.00 L 576.79,260.00 L 227.50,262.96 L 227.50,262.50 L 230.00,264.09 L 230.00,262.50 L 232.50,264.91 L 232.50,262.50 L 235.00,265.00 L 234.58,265.00 L 245.00,262.50 L 245.00,264.62 L 242.50,262.50 L 247.50,262.50 L 247.50,263.68 L 249.83,262.50 L 373.47,265.00 L 377.50,262.50 L 377.50,265.00 L 375.00,264.05 L 424.36,262.50 L 422.50,265.00 L 422.50,265.00 L 425.00,264.05 L 552.50,263.68 L 552.50,262.50 L 555.00,264.62 L 555.00,262.50 L 557.50,265.00 L 556.03,265.00 L 567.50,262.50 L 567.50,264.91 L 565.00,262.50 L 570.00,262.50 L 570.00,264.09 L 572.50,262.50 L 572.50,262.96 L 573.29,262.50 L 235.00,265.41 L 235.00,265.00 L 237.50,265.63 L 240.00,265.00 L 240.00,265.57 L 242.50,265.00 L 242.50,265.25 L 243.53,265.00 L 375.00,265.00 L 374.77,267.50 L 425.97,265.00 L 425.00,267.50 L 557.50,265.25 L 557.50,265.00 L 560.00,265.57 L 560.00,265.00 L 562.50,265.63 L 565.00,265.00 L 565.00,265.41 L 567.08,265.00 L 370.78,270.00 L 375.00,267.50 L 375.00,270.00 L 372.50,269.45 L 427.27,267.50 L 425.00,270.00 L 425.00,270.00 L 427.50,269.45 L 372.50,270.00 L 371.55,272.50 L 428.28,270.00 L 427.50,272.50 L 372.50,272.50 L 372.08,275.00 L 429.05,272.50 L 427.50,275.00 L 372.50,275.00 L 372.40,277.50 L 429.58,275.00 L 427.50,277.50 L 367.50,280.00 L 372.50,277.50 L 372.50,280.00 L 370.00,277.50 L 429.90,277.50 L 427.50,280.00 L 370.00,280.00 L 370.00,280.00 L 372.50,282.50 L 372.40,282.50 L 430.00,280.00 L 427.50,280.00 L 372.50,285.00 L 372.08,285.00 L 429.90,282.50 L 427.50,282.50 L 363.95,287.50 L 367.50,287.50 L 365.00,285.47 L 370.00,287.50 L 367.50,286.21 L 372.50,285.00 L 372.50,287.50 L 370.00,287.04 L 429.58,285.00 L 427.50,287.50 L 427.50,287.50 L 430.00,287.50 L 430.00,287.04 L 432.50,287.50 L 432.50,286.21 L 435.00,285.47 L 307.34,290.00 L 310.00,290.00 L 307.50,288.39 L 312.50,290.00 L 310.00,289.08 L 315.00,290.00 L 312.50,289.52 L 315.00,290.00 L 315.00,289.73 L 317.50,290.00 L 317.50,289.71 L 320.00,290.00 L 320.00,289.46 L 322.50,290.00 L 322.50,288.97 L 325.00,288.24 L 355.92,290.00 L 360.00,290.00 L 357.50,287.86 L 362.50,290.00 L 360.00,288.79 L 365.00,287.50 L 365.00,290.00 L 362.50,289.66 L 436.45,287.50 L 435.00,290.00 L 435.00,290.00 L 437.50,290.00 L 437.50,289.66 L 440.00,290.00 L 440.00,288.79 L 442.50,287.86 L 474.37,290.00 L 477.50,290.00 L 475.00,288.24 L 480.00,290.00 L 477.50,288.97 L 482.50,290.00 L 480.00,289.46 L 485.00,290.00 L 482.50,289.71 L 485.00,290.00 L 485.00,289.73 L 487.50,290.00 L 487.50,289.52 L 490.00,290.00 L 490.00,289.08 L 492.50,288.39 L 293.22,292.50 L 297.50,292.50 L 295.00,290.25 L 297.50,292.50 L 297.50,290.55 L 302.50,292.50 L 300.00,290.30 L 305.00,292.50 L 302.50,291.17 L 307.50,290.00 L 307.50,292.50 L 305.00,292.44 L 326.87,290.00 L 325.00,292.50 L 325.00,292.50 L 327.50,292.50 L 327.50,292.23 L 330.00,290.91 L 351.79,292.50 L 355.00,292.50 L 352.50,290.81 L 357.50,290.00 L 357.50,292.50 L 355.00,291.87 L 443.42,290.00 L 442.50,292.50 L 442.50,292.50 L 445.00,292.50 L 445.00,291.87 L 447.50,290.81 L 468.92,292.50 L 472.50,292.50 L 470.00,290.91 L 475.00,290.00 L 475.00,292.50 L 472.50,292.23 L 494.84,290.00 L 492.50,292.50 L 492.50,292.50 L 495.00,292.50 L 495.00,292.44 L 497.50,292.50 L 497.50,291.17 L 502.50,292.50 L 500.00,290.30 L 502.50,292.50 L 502.50,290.55 L 505.00,290.25 L 292.43,295.00 L 295.00,292.50 L 295.00,295.00 L 292.50,294.24 L 331.42,292.50 L 330.00,295.00 L 330.00,295.00 L 332.50,294.24 L 346.91,295.00 L 350.00,295.00 L 347.50,293.47 L 352.50,292.50 L 352.50,295.00 L 350.00,294.67 L 449.29,292.50 L 447.50,295.00 L 447.50,295.00 L 450.00,295.00 L 450.00,294.67 L 452.50,293.47 L 467.09,295.00 L 470.00,292.50 L 470.00,295.00 L 467.50,294.24 L 505.72,292.50 L 505.00,295.00 L 505.00,295.00 L 507.50,294.24 L 289.28,297.50 L 292.50,295.00 L 292.50,297.50 L 290.00,297.43 L 334.59,295.00 L 332.50,297.50 L 332.50,297.50 L 335.00,297.11 L 341.48,297.50 L 345.00,297.50 L 342.50,295.84 L 347.50,295.00 L 347.50,297.50 L 345.00,297.20 L 454.41,295.00 L 452.50,297.50 L 452.50,297.50 L 455.00,297.50 L 455.00,297.20 L 457.50,295.84 L 464.48,297.50 L 467.50,295.00 L 467.50,297.50 L 465.00,297.11 L 509.93,295.00 L 507.50,297.50 L 507.50,297.50 L 510.00,297.43 L 285.31,300.00 L 290.00,297.50 L 290.00,300.00 L 287.50,298.38 L 336.98,297.50 L 335.00,300.00 L 335.00,300.00 L 340.00,300.00 L 337.50,299.36 L 342.50,297.50 L 342.50,300.00 L 340.00,299.41 L 458.98,297.50 L 457.50,300.00 L 457.50,300.00 L 460.00,300.00 L 460.00,299.41 L 465.00,297.50 L 465.00,300.00 L 462.50,299.36 L 511.78,297.50 L 510.00,300.00 L 510.00,300.00 L 512.50,298.38 L 287.50,300.00 L 285.64,302.50 L 512.81,300.00 L 512.50,302.50 L 287.50,305.00 L 285.41,305.00 L 513.14,302.50 L 512.50,302.50 L 287.50,306.30 L 287.50,305.00 L 290.00,307.50 L 289.53,307.50 L 512.50,305.00 L 512.50,306.30 L 510.00,305.00 L 512.91,305.00 L 290.00,307.50 L 288.88,310.00 L 512.03,307.50 L 510.00,310.00 L 290.00,310.00 L 288.74,312.50 L 511.38,310.00 L 510.00,312.50 L 290.00,312.50 L 288.87,315.00 L 511.24,312.50 L 510.00,315.00 L 290.00,317.50 L 288.76,317.50 L 511.37,315.00 L 510.00,315.00 L 290.00,320.00 L 288.43,320.00 L 511.26,317.50 L 510.00,317.50 L 290.00,322.50 L 287.86,322.50 L 510.93,320.00 L 510.00,320.00 L 290.00,323.62 L 290.00,322.50 L 292.50,325.00 L 292.03,325.00 L 510.00,322.50 L 510.00,323.62 L 507.50,322.50 L 510.36,322.50 L 292.50,327.50 L 290.92,327.50 L 509.53,325.00 L 507.50,325.00 L 292.50,329.15 L 292.50,327.50 L 295.00,330.00 L 294.49,330.00 L 507.50,327.50 L 507.50,329.15 L 505.00,327.50 L 508.42,327.50 L 295.00,332.50 L 292.67,332.50 L 506.99,330.00 L 505.00,330.00 L 295.00,332.70 L 295.00,332.50 L 297.50,335.00 L 295.34,335.00 L 505.00,332.50 L 505.00,332.70 L 502.50,332.50 L 505.17,332.50 L 297.50,335.32 L 297.50,335.00 L 300.00,337.50 L 297.96,337.50 L 502.50,335.00 L 502.50,335.32 L 500.00,335.00 L 502.84,335.00 L 300.00,337.50 L 299.41,340.00 L 500.46,337.50 L 500.00,340.00 L 295.84,342.50 L 300.00,340.00 L 300.00,342.50 L 297.50,341.48 L 501.91,340.00 L 500.00,342.50 L 500.00,342.50 L 502.50,341.48 L 297.50,342.50 L 297.20,345.00 L 503.34,342.50 L 502.50,345.00 L 293.47,347.50 L 297.50,345.00 L 297.50,347.50 L 295.00,346.91 L 504.70,345.00 L 502.50,347.50 L 502.50,347.50 L 505.00,346.91 L 295.00,347.50 L 294.67,350.00 L 505.97,347.50 L 505.00,350.00 L 290.81,352.50 L 295.00,350.00 L 295.00,352.50 L 292.50,351.79 L 507.17,350.00 L 505.00,352.50 L 505.00,352.50 L 507.50,351.79 L 292.50,352.50 L 291.87,355.00 L 508.31,352.50 L 507.50,355.00 L 287.86,357.50 L 292.50,355.00 L 292.50,357.50 L 290.00,355.92 L 509.37,355.00 L 507.50,357.50 L 507.50,357.50 L 510.00,355.92 L 290.00,357.50 L 288.79,360.00 L 510.36,357.50 L 510.00,360.00 L 290.00,360.00 L 289.66,362.50 L 511.29,360.00 L 510.00,362.50 L 285.47,365.00 L 290.00,362.50 L 290.00,365.00 L 287.50,363.95 L 512.16,362.50 L 510.00,365.00 L 510.00,365.00 L 512.50,363.95 L 287.50,365.00 L 286.21,367.50 L 512.97,365.00 L 512.50,367.50 L 287.50,367.50 L 286.90,370.00 L 513.71,367.50 L 512.50,370.00 L 165.32,372.50 L 170.00,372.50 L 167.50,370.09 L 172.50,372.50 L 170.00,370.54 L 175.00,372.50 L 172.50,370.76 L 175.00,372.50 L 175.00,370.77 L 177.50,372.50 L 177.50,370.55 L 180.00,370.10 L 282.52,372.50 L 287.50,370.00 L 287.50,372.50 L 285.00,370.09 L 514.40,370.00 L 512.50,372.50 L 512.50,372.50 L 515.00,370.09 L 617.88,372.50 L 622.50,372.50 L 620.00,370.10 L 625.00,372.50 L 622.50,370.55 L 625.00,372.50 L 625.00,370.77 L 627.50,372.50 L 627.50,370.76 L 630.00,372.50 L 630.00,370.54 L 632.50,370.09 L 161.93,375.00 L 165.00,375.00 L 162.50,373.44 L 167.50,372.50 L 167.50,375.00 L 165.00,374.39 L 180.38,372.50 L 180.00,375.00 L 180.00,375.00 L 182.50,375.00 L 182.50,374.41 L 185.00,373.47 L 285.00,372.50 L 283.96,375.00 L 515.02,372.50 L 515.00,375.00 L 614.50,375.00 L 617.50,375.00 L 615.00,373.47 L 620.00,372.50 L 620.00,375.00 L 617.50,374.41 L 632.82,372.50 L 632.50,375.00 L 632.50,375.00 L 635.00,375.00 L 635.00,374.39 L 637.50,373.44 L 155.85,377.50 L 160.00,377.50 L 157.50,375.63 L 162.50,375.00 L 162.50,377.50 L 160.00,377.21 L 187.00,375.00 L 185.00,377.50 L 185.00,377.50 L 187.50,377.50 L 187.50,377.24 L 190.00,375.68 L 270.95,377.50 L 275.00,377.50 L 272.50,375.41 L 277.50,377.50 L 275.00,376.21 L 280.00,377.50 L 277.50,376.73 L 281.25,377.50 L 280.00,376.99 L 285.00,375.00 L 282.50,377.50 L 282.50,376.99 L 516.46,375.00 L 517.50,377.50 L 515.00,377.50 L 518.75,377.50 L 517.50,376.99 L 520.00,377.50 L 520.00,376.99 L 522.50,377.50 L 522.50,376.73 L 525.00,377.50 L 525.00,376.21 L 527.50,375.41 L 608.41,377.50 L 612.50,377.50 L 610.00,375.68 L 615.00,375.00 L 615.00,377.50 L 612.50,377.24 L 639.43,375.00 L 637.50,377.50 L 637.50,377.50 L 640.00,377.50 L 640.00,377.21 L 642.50,375.63 L 153.71,380.00 L 157.50,377.50 L 157.50,380.00 L 155.00,378.64 L 190.91,377.50 L 190.00,380.00 L 190.00,380.00 L 192.50,378.70 L 252.54,380.00 L 257.50,380.00 L 255.00,377.51 L 257.50,380.00 L 257.50,377.69 L 260.00,377.57 L 265.56,380.00 L 270.00,380.00 L 267.50,377.81 L 272.50,377.50 L 272.50,380.00 L 270.00,379.28 L 528.45,377.50 L 527.50,380.00 L 527.50,380.00 L 530.00,380.00 L 530.00,379.28 L 532.50,377.81 L 537.90,380.00 L 542.50,380.00 L 540.00,377.57 L 542.50,380.00 L 542.50,377.69 L 545.00,377.51 L 606.28,380.00 L 610.00,377.50 L 610.00,380.00 L 607.50,378.70 L 643.35,377.50 L 642.50,380.00 L 642.50,380.00 L 645.00,378.64 L 150.94,382.50 L 155.00,380.00 L 155.00,382.50 L 152.50,381.12 L 193.78,380.00 L 192.50,382.50 L 192.50,382.50 L 195.00,381.19 L 249.81,382.50 L 252.50,382.50 L 250.00,381.12 L 255.00,380.00 L 255.00,382.50 L 252.50,381.99 L 260.40,380.00 L 260.00,382.50 L 260.00,382.50 L 262.50,382.50 L 262.50,382.12 L 267.50,380.00 L 267.50,382.50 L 265.00,381.33 L 533.06,380.00 L 532.50,382.50 L 532.50,382.50 L 537.50,382.50 L 535.00,381.33 L 540.00,380.00 L 540.00,382.50 L 537.50,382.12 L 545.04,380.00 L 545.00,382.50 L 545.00,382.50 L 547.50,382.50 L 547.50,381.99 L 550.00,381.12 L 603.50,382.50 L 607.50,380.00 L 607.50,382.50 L 605.00,381.19 L 646.21,380.00 L 645.00,382.50 L 645.00,382.50 L 647.50,381.12 L 147.70,385.00 L 152.50,382.50 L 152.50,385.00 L 150.00,382.81 L 196.00,382.50 L 195.00,385.00 L 195.00,385.00 L 197.50,382.91 L 243.23,385.00 L 247.50,385.00 L 245.00,383.13 L 250.00,382.50 L 250.00,385.00 L 247.50,384.89 L 552.31,382.50 L 550.00,385.00 L 550.00,385.00 L 552.50,385.00 L 552.50,384.89 L 555.00,383.13 L 600.27,385.00 L 605.00,382.50 L 605.00,385.00 L 602.50,382.91 L 648.44,382.50 L 647.50,385.00 L 647.50,385.00 L 650.00,382.81 L 150.00,385.00 L 149.09,387.50 L 197.77,385.00 L 197.50,387.50 L 240.59,387.50 L 245.00,385.00 L 245.00,387.50 L 242.50,385.70 L 555.73,385.00 L 555.00,387.50 L 555.00,387.50 L 557.50,385.70 L 602.50,385.00 L 601.66,387.50 L 650.20,385.00 L 650.00,387.50 L 145.18,390.00 L 150.00,387.50 L 150.00,390.00 L 147.50,387.94 L 199.16,387.50 L 197.50,390.00 L 197.50,390.00 L 200.00,388.10 L 242.50,387.50 L 242.28,390.00 L 558.09,387.50 L 557.50,390.00 L 597.75,390.00 L 602.50,387.50 L 602.50,390.00 L 600.00,388.10 L 651.59,387.50 L 650.00,390.00 L 650.00,390.00 L 652.50,387.94 L 147.50,390.00 L 145.99,392.50 L 200.25,390.00 L 200.00,392.50 L 238.48,392.50 L 242.50,390.00 L 242.50,392.50 L 240.00,392.09 L 559.78,390.00 L 557.50,392.50 L 557.50,392.50 L 560.00,392.09 L 600.00,390.00 L 598.56,392.50 L 652.68,390.00 L 652.50,392.50 L 147.50,392.50 L 146.56,395.00 L 201.06,392.50 L 200.00,395.00 L 240.00,392.50 L 239.30,395.00 L 560.98,392.50 L 560.00,395.00 L 600.00,392.50 L 599.13,395.00 L 653.49,392.50 L 652.50,395.00 L 147.50,395.00 L 146.90,397.50 L 201.63,395.00 L 200.00,397.50 L 240.00,395.00 L 239.78,397.50 L 561.80,395.00 L 560.00,397.50 L 600.00,395.00 L 599.46,397.50 L 654.06,395.00 L 652.50,397.50 L 147.50,397.50 L 147.01,400.00 L 201.96,397.50 L 200.00,400.00 L 240.00,397.50 L 239.94,400.00 L 562.28,397.50 L 560.00,400.00 L 600.00,397.50 L 599.58,400.00 L 654.40,397.50 L 652.50,400.00 L 147.50,402.50 L 146.90,402.50 L 202.08,400.00 L 200.00,400.00 L 240.00,402.50 L 239.78,402.50 L 562.44,400.00 L 560.00,400.00 L 600.00,402.50 L 599.46,402.50 L 654.51,400.00 L 652.50,400.00 L 147.50,405.00 L 146.56,405.00 L 201.96,402.50 L 200.00,402.50 L 240.00,405.00 L 239.30,405.00 L 562.28,402.50 L 560.00,402.50 L 600.00,405.00 L 599.13,405.00 L 654.40,402.50 L 652.50,402.50 L 147.50,407.50 L 145.99,407.50 L 201.63,405.00 L 200.00,405.00 L 240.00,407.50 L 238.48,407.50 L 561.80,405.00 L 560.00,405.00 L 600.00,407.50 L 598.56,407.50 L 654.06,405.00 L 652.50,405.00 L 147.50,410.00 L 145.18,410.00 L 201.06,407.50 L 200.00,407.50 L 240.00,409.59 L 240.00,407.50 L 242.50,410.00 L 242.28,410.00 L 560.00,407.50 L 560.00,409.59 L 557.50,407.50 L 560.98,407.50 L 600.00,410.00 L 597.75,410.00 L 653.49,407.50 L 652.50,407.50 L 147.50,410.44 L 147.50,410.00 L 150.00,412.50 L 149.09,412.50 L 200.00,410.00 L 200.00,410.60 L 197.50,410.00 L 200.25,410.00 L 242.50,412.50 L 240.59,412.50 L 559.78,410.00 L 557.50,410.00 L 600.00,410.60 L 600.00,410.00 L 602.50,412.50 L 601.66,412.50 L 652.50,410.00 L 652.50,410.44 L 650.00,410.00 L 652.68,410.00 L 150.00,415.00 L 147.70,415.00 L 199.16,412.50 L 197.50,412.50 L 242.50,413.20 L 242.50,412.50 L 245.00,415.00 L 243.23,415.00 L 557.50,412.50 L 557.50,413.20 L 555.00,412.50 L 558.09,412.50 L 602.50,415.00 L 600.27,415.00 L 651.59,412.50 L 650.00,412.50 L 150.00,415.31 L 150.00,415.00 L 152.50,417.50 L 150.94,417.50 L 197.50,415.00 L 197.50,415.41 L 195.00,415.00 L 197.77,415.00 L 245.00,415.63 L 245.00,415.00 L 247.50,417.39 L 247.50,415.00 L 250.00,417.50 L 249.81,417.50 L 552.50,415.00 L 552.50,417.39 L 550.00,415.00 L 555.00,415.00 L 555.00,415.63 L 555.73,415.00 L 602.50,415.41 L 602.50,415.00 L 605.00,417.50 L 603.50,417.50 L 650.00,415.00 L 650.00,415.31 L 647.50,415.00 L 650.20,415.00 L 152.50,418.62 L 152.50,417.50 L 155.00,420.00 L 153.71,420.00 L 195.00,417.50 L 195.00,418.69 L 192.50,417.50 L 196.00,417.50 L 250.00,418.62 L 250.00,417.50 L 252.50,419.49 L 252.50,417.50 L 255.00,420.00 L 252.54,420.00 L 262.50,417.50 L 262.50,419.62 L 260.00,417.50 L 265.00,417.50 L 265.00,418.83 L 265.00,417.50 L 267.50,420.00 L 265.56,420.00 L 535.00,417.50 L 535.00,418.83 L 532.50,417.50 L 535.00,417.50 L 537.50,419.62 L 537.50,417.50 L 540.00,420.00 L 537.90,420.00 L 547.50,417.50 L 547.50,419.49 L 545.00,417.50 L 550.00,417.50 L 550.00,418.62 L 552.31,417.50 L 605.00,418.69 L 605.00,417.50 L 607.50,420.00 L 606.28,420.00 L 647.50,417.50 L 647.50,418.62 L 645.00,417.50 L 648.44,417.50 L 155.00,421.14 L 155.00,420.00 L 157.50,422.50 L 155.85,422.50 L 192.50,420.00 L 192.50,421.20 L 190.00,420.00 L 193.78,420.00 L 255.00,420.01 L 255.00,420.00 L 257.50,420.19 L 260.00,420.00 L 260.00,420.07 L 260.40,420.00 L 267.50,420.31 L 267.50,420.00 L 270.00,421.78 L 270.00,420.00 L 272.50,422.50 L 270.95,422.50 L 530.00,420.00 L 530.00,421.78 L 527.50,420.00 L 532.50,420.00 L 532.50,420.31 L 533.06,420.00 L 540.00,420.07 L 540.00,420.00 L 542.50,420.19 L 545.00,420.00 L 545.00,420.01 L 545.04,420.00 L 607.50,421.20 L 607.50,420.00 L 610.00,422.50 L 608.41,422.50 L 645.00,420.00 L 645.00,421.14 L 642.50,420.00 L 646.21,420.00 L 157.50,423.13 L 157.50,422.50 L 160.00,424.71 L 160.00,422.50 L 162.50,425.00 L 161.93,425.00 L 187.50,422.50 L 187.50,424.74 L 185.00,422.50 L 190.00,422.50 L 190.00,423.18 L 190.91,422.50 L 272.50,422.91 L 272.50,422.50 L 275.00,423.71 L 275.00,422.50 L 277.50,424.23 L 277.50,422.50 L 280.00,424.49 L 281.25,422.50 L 282.50,424.49 L 285.00,422.50 L 285.00,425.00 L 283.96,425.00 L 515.00,422.50 L 517.50,424.49 L 515.00,422.50 L 518.75,422.50 L 520.00,424.49 L 522.50,422.50 L 522.50,424.23 L 525.00,422.50 L 525.00,423.71 L 527.50,422.50 L 527.50,422.91 L 528.45,422.50 L 610.00,423.18 L 610.00,422.50 L 612.50,424.74 L 612.50,422.50 L 615.00,425.00 L 614.50,425.00 L 640.00,422.50 L 640.00,424.71 L 637.50,422.50 L 642.50,422.50 L 642.50,423.13 L 643.35,422.50 L 162.50,425.94 L 162.50,425.00 L 165.00,426.89 L 165.00,425.00 L 167.50,427.50 L 165.32,427.50 L 182.50,425.00 L 182.50,426.91 L 180.00,425.00 L 185.00,425.00 L 185.00,425.97 L 187.00,425.00 L 285.00,427.50 L 282.52,427.50 L 516.46,425.00 L 515.00,425.00 L 615.00,425.97 L 615.00,425.00 L 617.50,426.91 L 617.50,425.00 L 620.00,427.50 L 617.88,427.50 L 635.00,425.00 L 635.00,426.89 L 632.50,425.00 L 637.50,425.00 L 637.50,425.94 L 639.43,425.00 L 167.50,427.59 L 167.50,427.50 L 170.00,428.04 L 170.00,427.50 L 172.50,428.26 L 172.50,427.50 L 175.00,428.27 L 177.50,427.50 L 177.50,428.05 L 180.00,427.50 L 180.00,427.60 L 180.38,427.50 L 285.00,427.59 L 285.00,427.50 L 287.50,430.00 L 286.90,430.00 L 515.00,427.50 L 515.00,427.59 L 512.50,427.50 L 515.02,427.50 L 620.00,427.60 L 620.00,427.50 L 622.50,428.05 L 622.50,427.50 L 625.00,428.27 L 627.50,427.50 L 627.50,428.26 L 630.00,427.50 L 630.00,428.04 L 632.50,427.50 L 632.50,427.59 L 632.82,427.50 L 287.50,432.50 L 286.21,432.50 L 514.40,430.00 L 512.50,430.00 L 287.50,435.00 L 285.47,435.00 L 513.71,432.50 L 512.50,432.50 L 287.50,436.45 L 287.50,435.00 L 290.00,437.50 L 289.66,437.50 L 512.50,435.00 L 512.50,436.45 L 510.00,435.00 L 512.97,435.00 L 290.00,440.00 L 288.79,440.00 L 512.16,437.50 L 510.00,437.50 L 290.00,442.50 L 287.86,442.50 L 511.29,440.00 L 510.00,440.00 L 290.00,443.42 L 290.00,442.50 L 292.50,445.00 L 291.87,445.00 L 510.00,442.50 L 510.00,443.42 L 507.50,442.50 L 510.36,442.50 L 292.50,447.50 L 290.81,447.50 L 509.37,445.00 L 507.50,445.00 L 292.50,449.29 L 292.50,447.50 L 295.00,450.00 L 294.67,450.00 L 507.50,447.50 L 507.50,449.29 L 505.00,447.50 L 508.31,447.50 L 295.00,452.50 L 293.47,452.50 L 507.17,450.00 L 505.00,450.00 L 295.00,454.41 L 295.00,452.50 L 297.50,455.00 L 297.20,455.00 L 505.00,452.50 L 505.00,454.41 L 502.50,452.50 L 505.97,452.50 L 297.50,457.50 L 295.84,457.50 L 504.70,455.00 L 502.50,455.00 L 297.50,458.98 L 297.50,457.50 L 300.00,460.00 L 299.41,460.00 L 502.50,457.50 L 502.50,458.98 L 500.00,457.50 L 503.34,457.50 L 300.00,462.50 L 297.96,462.50 L 501.91,460.00 L 500.00,460.00 L 295.34,465.00 L 300.00,462.50 L 300.00,465.00 L 297.50,462.82 L 500.46,462.50 L 500.00,465.00 L 500.00,465.00 L 502.50,462.82 L 292.67,467.50 L 297.50,465.00 L 297.50,467.50 L 295.00,465.20 L 502.84,465.00 L 502.50,467.50 L 502.50,467.50 L 505.00,465.20 L 295.00,467.50 L 294.49,470.00 L 505.17,467.50 L 505.00,470.00 L 290.92,472.50 L 295.00,470.00 L 295.00,472.50 L 292.50,471.65 L 506.99,470.00 L 505.00,472.50 L 505.00,472.50 L 507.50,471.65 L 292.50,472.50 L 292.03,475.00 L 508.42,472.50 L 507.50,475.00 L 287.86,477.50 L 292.50,475.00 L 292.50,477.50 L 290.00,476.12 L 509.53,475.00 L 507.50,477.50 L 507.50,477.50 L 510.00,476.12 L 290.00,477.50 L 288.43,480.00 L 510.36,477.50 L 510.00,480.00 L 290.00,480.00 L 288.76,482.50 L 510.93,480.00 L 510.00,482.50 L 290.00,482.50 L 288.87,485.00 L 511.26,482.50 L 510.00,485.00 L 290.00,487.50 L 288.74,487.50 L 511.37,485.00 L 510.00,485.00 L 290.00,490.00 L 288.88,490.00 L 511.24,487.50 L 510.00,487.50 L 290.00,492.50 L 289.53,492.50 L 511.38,490.00 L 510.00,490.00 L 285.41,495.00 L 290.00,492.50 L 290.00,495.00 L 287.50,493.80 L 512.03,492.50 L 510.00,495.00 L 510.00,495.00 L 512.50,493.80 L 287.50,495.00 L 285.64,497.50 L 512.91,495.00 L 512.50,497.50 L 287.50,500.00 L 285.31,500.00 L 513.14,497.50 L 512.50,497.50 L 287.50,500.88 L 287.50,500.00 L 290.00,502.50 L 289.28,502.50 L 337.50,500.00 L 337.50,501.86 L 335.00,500.00 L 337.50,500.00 L 340.00,501.91 L 340.00,500.00 L 342.50,502.50 L 341.48,502.50 L 460.00,500.00 L 460.00,501.91 L 457.50,500.00 L 462.50,500.00 L 462.50,501.86 L 462.50,500.00 L 465.00,502.50 L 464.48,502.50 L 512.50,500.00 L 512.50,500.88 L 510.00,500.00 L 512.81,500.00 L 290.00,504.93 L 290.00,502.50 L 292.50,505.00 L 292.43,505.00 L 335.00,502.50 L 335.00,504.61 L 332.50,502.50 L 336.98,502.50 L 342.50,503.34 L 342.50,502.50 L 345.00,504.70 L 345.00,502.50 L 347.50,505.00 L 346.91,505.00 L 455.00,502.50 L 455.00,504.70 L 452.50,502.50 L 457.50,502.50 L 457.50,503.34 L 458.98,502.50 L 465.00,504.61 L 465.00,502.50 L 467.50,505.00 L 467.09,505.00 L 510.00,502.50 L 510.00,504.93 L 507.50,502.50 L 511.78,502.50 L 292.50,506.74 L 292.50,505.00 L 295.00,507.50 L 293.22,507.50 L 332.50,505.00 L 332.50,506.74 L 330.00,505.00 L 334.59,505.00 L 347.50,505.97 L 347.50,505.00 L 350.00,507.17 L 350.00,505.00 L 352.50,507.50 L 351.79,507.50 L 450.00,505.00 L 450.00,507.17 L 447.50,505.00 L 452.50,505.00 L 452.50,505.97 L 454.41,505.00 L 467.50,506.74 L 467.50,505.00 L 470.00,507.50 L 468.92,507.50 L 507.50,505.00 L 507.50,506.74 L 505.00,505.00 L 509.93,505.00 L 295.00,507.75 L 295.00,507.50 L 297.50,508.05 L 300.00,507.50 L 300.00,507.80 L 300.00,507.50 L 302.50,508.67 L 302.50,507.50 L 305.00,509.94 L 305.00,507.50 L 307.50,510.00 L 307.34,510.00 L 327.50,507.50 L 327.50,509.73 L 325.00,507.50 L 330.00,507.50 L 330.00,508.41 L 331.42,507.50 L 352.50,508.31 L 352.50,507.50 L 355.00,509.37 L 355.00,507.50 L 357.50,510.00 L 355.92,510.00 L 445.00,507.50 L 445.00,509.37 L 442.50,507.50 L 447.50,507.50 L 447.50,508.31 L 449.29,507.50 L 470.00,508.41 L 470.00,507.50 L 472.50,509.73 L 472.50,507.50 L 475.00,510.00 L 474.37,510.00 L 495.00,507.50 L 495.00,509.94 L 492.50,507.50 L 497.50,507.50 L 497.50,508.67 L 500.00,507.50 L 500.00,507.80 L 500.00,507.50 L 502.50,508.05 L 505.00,507.50 L 505.00,507.75 L 505.72,507.50 L 307.50,510.89 L 307.50,510.00 L 310.00,511.58 L 310.00,510.00 L 312.50,512.02 L 312.50,510.00 L 315.00,512.23 L 317.50,510.00 L 317.50,512.21 L 320.00,510.00 L 320.00,511.96 L 322.50,510.00 L 322.50,511.47 L 325.00,510.00 L 325.00,510.74 L 326.87,510.00 L 357.50,510.36 L 357.50,510.00 L 360.00,511.29 L 360.00,510.00 L 362.50,512.16 L 362.50,510.00 L 365.00,512.50 L 363.95,512.50 L 437.50,510.00 L 437.50,512.16 L 435.00,510.00 L 440.00,510.00 L 440.00,511.29 L 442.50,510.00 L 442.50,510.36 L 443.42,510.00 L 475.00,510.74 L 475.00,510.00 L 477.50,511.47 L 477.50,510.00 L 480.00,511.96 L 480.00,510.00 L 482.50,512.21 L 482.50,510.00 L 485.00,512.23 L 487.50,510.00 L 487.50,512.02 L 490.00,510.00 L 490.00,511.58 L 492.50,510.00 L 492.50,510.89 L 494.84,510.00 L 365.00,512.97 L 365.00,512.50 L 367.50,513.71 L 367.50,512.50 L 370.00,514.54 L 370.00,512.50 L 372.50,515.00 L 372.08,515.00 L 430.00,512.50 L 430.00,514.54 L 427.50,512.50 L 432.50,512.50 L 432.50,513.71 L 435.00,512.50 L 435.00,512.97 L 436.45,512.50 L 372.50,515.00 L 372.40,517.50 L 429.58,515.00 L 427.50,517.50 L 372.50,517.50 L 372.50,520.00 L 429.90,517.50 L 427.50,520.00 L 427.50,520.00 L 430.00,517.50 L 372.50,522.50 L 372.40,522.50 L 430.00,520.00 L 430.00,520.00 L 427.50,520.00 L 430.00,520.00 L 372.50,525.00 L 372.08,525.00 L 429.90,522.50 L 427.50,522.50 L 372.50,527.50 L 371.55,527.50 L 429.58,525.00 L 427.50,525.00 L 372.50,530.00 L 370.78,530.00 L 429.05,527.50 L 427.50,527.50 L 372.50,531.95 L 372.50,530.00 L 375.00,532.50 L 374.77,532.50 L 427.50,530.00 L 427.50,531.95 L 425.00,530.00 L 428.28,530.00 L 234.58,535.00 L 237.50,535.00 L 235.00,532.91 L 237.50,535.00 L 237.50,533.13 L 240.00,535.00 L 240.00,533.07 L 242.50,532.75 L 375.00,535.00 L 373.47,535.00 L 427.27,532.50 L 425.00,532.50 L 556.03,535.00 L 560.00,535.00 L 557.50,532.75 L 562.50,535.00 L 560.00,533.07 L 562.50,535.00 L 562.50,533.13 L 565.00,532.91 L 225.79,537.50 L 230.00,537.50 L 227.50,535.46 L 232.50,537.50 L 230.00,536.59 L 235.00,535.00 L 235.00,537.50 L 232.50,537.41 L 243.53,535.00 L 242.50,537.50 L 242.50,537.50 L 245.00,537.50 L 245.00,537.12 L 247.50,536.18 L 375.00,536.55 L 375.00,535.00 L 377.50,537.50 L 376.86,537.50 L 425.00,535.00 L 425.00,536.55 L 422.50,535.00 L 425.97,535.00 L 552.33,537.50 L 555.00,537.50 L 552.50,536.18 L 557.50,535.00 L 557.50,537.50 L 555.00,537.12 L 567.08,535.00 L 565.00,537.50 L 565.00,537.50 L 567.50,537.50 L 567.50,537.41 L 570.00,537.50 L 570.00,536.59 L 572.50,535.46 L 224.29,540.00 L 227.50,537.50 L 227.50,540.00 L 225.00,538.91 L 249.83,537.50 L 247.50,540.00 L 247.50,540.00 L 250.00,540.00 L 250.00,539.91 L 252.50,538.16 L 377.50,539.84 L 377.50,537.50 L 380.00,540.00 L 379.86,540.00 L 422.50,537.50 L 422.50,539.84 L 420.00,537.50 L 424.36,537.50 L 545.79,540.00 L 550.00,540.00 L 547.50,538.16 L 552.50,537.50 L 552.50,540.00 L 550.00,539.91 L 573.29,537.50 L 572.50,540.00 L 572.50,540.00 L 575.00,538.91 L 221.75,542.50 L 225.00,540.00 L 225.00,542.50 L 222.50,541.85 L 253.29,540.00 L 252.50,542.50 L 252.50,542.50 L 255.00,540.85 L 380.00,542.36 L 380.00,540.00 L 382.50,542.50 L 382.34,542.50 L 420.00,540.00 L 420.00,542.36 L 417.50,540.00 L 422.36,540.00 L 543.26,542.50 L 547.50,540.00 L 547.50,542.50 L 545.00,540.85 L 576.79,540.00 L 575.00,542.50 L 575.00,542.50 L 577.50,541.85 L 218.59,545.00 L 222.50,542.50 L 222.50,545.00 L 220.00,544.05 L 255.76,542.50 L 255.00,545.00 L 255.00,545.00 L 257.50,542.67 L 382.50,544.36 L 382.50,542.50 L 385.00,545.00 L 384.05,545.00 L 417.50,542.50 L 417.50,544.36 L 415.00,542.50 L 419.84,542.50 L 540.11,545.00 L 545.00,542.50 L 545.00,545.00 L 542.50,542.67 L 579.25,542.50 L 577.50,545.00 L 577.50,545.00 L 580.00,544.05 L 220.00,545.00 L 219.98,547.50 L 257.61,545.00 L 257.50,547.50 L 385.00,545.97 L 385.00,545.00 L 387.50,547.27 L 387.50,545.00 L 390.00,547.50 L 389.45,547.50 L 412.50,545.00 L 412.50,547.27 L 410.00,545.00 L 415.00,545.00 L 415.00,545.97 L 416.55,545.00 L 542.50,545.00 L 541.47,547.50 L 581.09,545.00 L 580.00,547.50 L 215.97,550.00 L 220.00,547.50 L 220.00,550.00 L 217.50,549.96 L 258.97,547.50 L 257.50,550.00 L 390.00,548.28 L 390.00,547.50 L 392.50,549.05 L 392.50,547.50 L 395.00,549.58 L 395.00,547.50 L 397.50,549.90 L 397.50,547.50 L 400.00,550.00 L 402.50,547.50 L 402.50,549.90 L 405.00,547.50 L 405.00,549.58 L 407.50,547.50 L 407.50,549.05 L 410.00,547.50 L 410.00,548.28 L 411.95,547.50 L 542.50,547.50 L 542.49,550.00 L 582.48,547.50 L 580.00,550.00 L 580.00,550.00 L 582.50,549.96 L 217.50,550.00 L 216.66,552.50 L 259.99,550.00 L 257.50,552.50 L 257.50,552.50 L 260.00,552.48 L 538.16,552.50 L 542.50,550.00 L 542.50,552.50 L 540.00,552.48 L 583.47,550.00 L 582.50,552.50 L 217.50,552.50 L 217.05,555.00 L 260.66,552.50 L 260.00,555.00 L 540.00,552.50 L 538.55,555.00 L 584.16,552.50 L 582.50,555.00 L 217.50,555.00 L 217.17,557.50 L 261.05,555.00 L 260.00,557.50 L 540.00,555.00 L 538.66,557.50 L 584.55,555.00 L 582.50,557.50 L 217.50,560.00 L 217.00,560.00 L 261.16,557.50 L 260.00,557.50 L 540.00,560.00 L 538.50,560.00 L 584.67,557.50 L 582.50,557.50 L 217.50,562.50 L 216.60,562.50 L 261.00,560.00 L 260.00,560.00 L 540.00,562.50 L 538.07,562.50 L 584.50,560.00 L 582.50,560.00 L 217.50,562.50 L 217.20,565.00 L 260.00,562.50 L 260.00,564.47 L 257.50,562.50 L 260.57,562.50 L 540.00,564.47 L 540.00,562.50 L 542.50,565.00 L 542.34,565.00 L 584.10,562.50 L 582.50,565.00 L 212.71,567.50 L 217.50,565.00 L 217.50,567.50 L 215.00,566.08 L 259.84,565.00 L 257.50,565.00 L 542.50,567.50 L 541.25,567.50 L 584.70,565.00 L 582.50,567.50 L 582.50,567.50 L 585.00,566.08 L 215.00,567.50 L 212.84,570.00 L 257.50,567.50 L 257.50,569.71 L 255.00,567.50 L 258.75,567.50 L 542.50,569.71 L 542.50,567.50 L 545.00,570.00 L 544.82,570.00 L 585.21,567.50 L 585.00,570.00 L 215.00,572.50 L 212.63,572.50 L 257.32,570.00 L 255.00,570.00 L 545.00,572.50 L 542.88,572.50 L 585.34,570.00 L 585.00,570.00 L 215.00,573.06 L 215.00,572.50 L 217.50,575.00 L 217.01,575.00 L 255.00,572.50 L 255.00,572.92 L 252.50,572.50 L 255.38,572.50 L 545.00,572.92 L 545.00,572.50 L 547.50,575.00 L 545.28,575.00 L 585.00,572.50 L 585.00,573.06 L 582.50,572.50 L 585.13,572.50 L 217.50,577.50 L 215.98,577.50 L 250.00,575.00 L 250.00,576.95 L 247.50,575.00 L 252.50,575.00 L 252.50,575.23 L 252.78,575.00 L 547.50,575.23 L 547.50,575.00 L 550.00,576.95 L 550.00,575.00 L 552.50,577.50 L 551.50,577.50 L 584.51,575.00 L 582.50,575.00 L 217.50,579.20 L 217.50,577.50 L 220.00,580.00 L 219.46,580.00 L 247.50,577.50 L 247.50,578.59 L 245.00,577.50 L 249.00,577.50 L 552.50,578.59 L 552.50,577.50 L 555.00,580.00 L 553.57,580.00 L 582.50,577.50 L 582.50,579.20 L 580.00,577.50 L 583.48,577.50 L 220.00,582.25 L 220.00,580.00 L 222.50,582.50 L 222.24,582.50 L 245.00,580.00 L 245.00,581.31 L 242.50,580.00 L 246.07,580.00 L 555.00,581.31 L 555.00,580.00 L 557.50,582.50 L 556.32,582.50 L 580.00,580.00 L 580.00,582.25 L 577.50,580.00 L 581.96,580.00 L 222.50,584.23 L 222.50,582.50 L 225.00,585.00 L 223.69,585.00 L 242.50,582.50 L 242.50,583.61 L 240.00,582.50 L 243.82,582.50 L 557.50,583.61 L 557.50,582.50 L 560.00,585.00 L 557.86,585.00 L 577.50,582.50 L 577.50,584.23 L 575.00,582.50 L 579.74,582.50 L 225.00,585.60 L 225.00,585.00 L 227.50,586.49 L 227.50,585.00 L 230.00,586.98 L 230.00,585.00 L 232.50,587.10 L 235.00,585.00 L 235.00,586.85 L 237.50,585.00 L 237.50,586.22 L 240.00,585.00 L 240.00,585.20 L 240.36,585.00 L 560.00,585.20 L 560.00,585.00 L 562.50,586.22 L 562.50,585.00 L 565.00,586.85 L 565.00,585.00 L 567.50,587.10 L 570.00,585.00 L 570.00,586.98 L 572.50,585.00 L 572.50,586.49 L 575.00,585.00 L 575.00,585.60 L 576.19,585.00 L 389.45,612.50 L 392.50,612.50 L 390.00,610.78 L 395.00,612.50 L 392.50,611.55 L 397.50,612.50 L 395.00,612.08 L 400.00,612.50 L 397.50,612.40 L 400.00,612.50 L 400.00,612.50 L 402.50,612.50 L 402.50,612.40 L 405.00,612.50 L 405.00,612.08 L 407.50,612.50 L 407.50,611.55 L 410.00,610.78 L 384.05,615.00 L 387.50,615.00 L 385.00,613.47 L 390.00,612.50 L 390.00,615.00 L 387.50,614.77 L 411.95,612.50 L 410.00,615.00 L 410.00,615.00 L 412.50,615.00 L 412.50,614.77 L 415.00,613.47 L 382.34,617.50 L 385.00,615.00 L 385.00,617.50 L 382.50,616.86 L 416.55,615.00 L 415.00,617.50 L 415.00,617.50 L 417.50,616.86 L 379.86,620.00 L 382.50,617.50 L 382.50,620.00 L 380.00,619.86 L 419.84,617.50 L 417.50,620.00 L 417.50,620.00 L 420.00,619.86 L 376.86,622.50 L 380.00,620.00 L 380.00,622.50 L 377.50,622.34 L 422.36,620.00 L 420.00,622.50 L 420.00,622.50 L 422.50,622.34 L 373.47,625.00 L 377.50,622.50 L 377.50,625.00 L 375.00,624.05 L 424.36,622.50 L 422.50,625.00 L 422.50,625.00 L 425.00,624.05 L 375.00,625.00 L 374.77,627.50 L 425.97,625.00 L 425.00,627.50 L 370.78,630.00 L 375.00,627.50 L 375.00,630.00 L 372.50,629.45 L 427.27,627.50 L 425.00,630.00 L 425.00,630.00 L 427.50,629.45 L 372.50,630.00 L 371.55,632.50 L 428.28,630.00 L 427.50,632.50 L 372.50,632.50 L 372.08,635.00 L 429.05,632.50 L 427.50,635.00 L 372.50,635.00 L 372.40,637.50 L 429.58,635.00 L 427.50,637.50 L 372.50,637.50 L 372.50,640.00 L 429.90,637.50 L 427.50,640.00 L 427.50,640.00 L 430.00,637.50 L 372.50,642.50 L 372.40,642.50 L 430.00,640.00 L 430.00,640.00 L 427.50,640.00 L 430.00,640.00 L 372.50,645.00 L 372.08,645.00 L 429.90,642.50 L 427.50,642.50 L 372.50,647.50 L 371.55,647.50 L 429.58,645.00 L 427.50,645.00 L 372.50,650.00 L 370.78,650.00 L 429.05,647.50 L 427.50,647.50 L 372.50,651.95 L 372.50,650.00 L 375.00,652.50 L 374.77,652.50 L 427.50,650.00 L 427.50,651.95 L 425.00,650.00 L 428.28,650.00 L 375.00,655.00 L 373.47,655.00 L 427.27,652.50 L 425.00,652.50 L 375.00,656.55 L 375.00,655.00 L 377.50,657.50 L 376.86,657.50 L 425.00,655.00 L 425.00,656.55 L 422.50,655.00 L 425.97,655.00 L 377.50,659.84 L 377.50,657.50 L 380.00,660.00 L 379.86,660.00 L 422.50,657.50 L 422.50,659.84 L 420.00,657.50 L 424.36,657.50 L 380.00,662.36 L 380.00,660.00 L 382.50,662.50 L 382.34,662.50 L 420.00,660.00 L 420.00,662.36 L 417.50,660.00 L 422.36,660.00 L 382.50,664.36 L 382.50,662.50 L 385.00,665.00 L 384.05,665.00 L 417.50,662.50 L 417.50,664.36 L 415.00,662.50 L 419.84,662.50 L 385.00,665.97 L 385.00,665.00 L 387.50,667.27 L 387.50,665.00 L 390.00,667.50 L 389.45,667.50 L 412.50,665.00 L 412.50,667.27 L 410.00,665.00 L 415.00,665.00 L 415.00,665.97 L 416.55,665.00 L 390.00,668.28 L 390.00,667.50 L 392.50,669.05 L 392.50,667.50 L 395.00,669.58 L 395.00,667.50 L 397.50,669.90 L 397.50,667.50 L 400.00,670.00 L 402.50,667.50 L 402.50,669.90 L 405.00,667.50 L 405.00,669.58 L 407.50,667.50 L 407.50,669.05 L 410.00,667.50 L 410.00,668.28 L 411.95,667.50 Z" fill="none" stroke="#ff00cc" stroke-width="6" opacity="0.6" filter="drop-shadow(0px 0px 6px #ff00cc)"/>
  <script>
    let m=0,e=0,bpm=128.000000,s=Date.now();
    function a(){
      let t=(Date.now()-s)/1000;
      // Slow the rotation speed down by 8x for a majestic cinematic feel
      m=(t*(bpm/(60*8)))%1; e=(t*(bpm*1.618/(60*8)))%1;
      let hue = (m*360 + 180) % 360;
      document.getElementById('main').setAttribute('stroke',`hsl(${hue},100%,70%)`);
      document.getElementById('echo').setAttribute('transform',`rotate(${e*360} 400 400)`);
      requestAnimationFrame(a);
    }
    a();
  </script>
</svg>